<svg width="232" height="120" viewBox="0 0 232 120" fill="none" xmlns="http://www.w3.org/2000/svg">
<path d="M197.784 55.1787C214.905 55.1788 228.784 69.0581 228.784 86.1787C228.784 103.299 214.905 117.179 197.784 117.179C180.663 117.179 166.784 103.3 166.784 86.1787C166.784 69.0581 180.663 55.1787 197.784 55.1787ZM115.509 2.5C127.027 2.50006 137.129 6.25926 144.352 13.6221C151.575 20.9854 155.673 31.701 155.673 45.1475V113.249H140.325V45.1475C140.325 35.7975 137.626 28.9187 133.308 24.3936C128.997 19.8772 122.816 17.4336 115.302 17.4336C107.182 17.4336 100.149 20.1234 95.1201 25.7109C90.0664 31.3262 86.7598 40.1764 86.7598 53.0107V113.249H71.4131V45.1475C71.4131 35.7486 68.8926 28.8616 64.793 24.3496C60.7186 19.8655 54.8188 17.4336 47.4238 17.4336C39.5129 17.4336 32.1883 20.1246 26.834 25.7607C21.4797 31.397 17.8477 40.2422 17.8477 53.0107V113.249H2.5V4.77637H17.8477V16.7598C25.9458 6.74016 37.0489 2.50008 48.665 2.5C62.9991 2.5 74.7281 8.88419 81.1934 20.7314C89.3864 8.26925 102.218 2.5 115.509 2.5Z" fill="white" stroke="white" stroke-width="5"/>
</svg>
