<svg width="74" height="36" viewBox="0 0 74 36" fill="none" xmlns="http://www.w3.org/2000/svg">
<g clip-path="url(#clip0_95_144)">
<path d="M14.1352 3.96015C14.1675 3.96496 14.1999 3.96977 14.2332 3.97472C15.2828 4.1331 16.2901 4.45213 17.2571 4.88515C17.2856 4.89793 17.3142 4.91071 17.3437 4.92388C18.2244 5.32179 19.0459 5.84388 19.8008 6.44609C19.83 6.46916 19.8592 6.49222 19.8893 6.51598C20.0896 6.67667 20.2781 6.84911 20.4657 7.02422C20.3109 7.2118 20.1407 7.38301 19.9692 7.55514C19.9366 7.58796 19.904 7.62079 19.8714 7.65362C19.7651 7.76069 19.6587 7.86761 19.5522 7.97451C19.5154 8.0114 19.4787 8.0483 19.442 8.08519C19.2893 8.23851 19.1365 8.39178 18.9837 8.54495C18.7648 8.76426 18.5463 8.98382 18.328 9.20372C18.1743 9.35853 18.0203 9.51307 17.8661 9.6674C17.7741 9.75955 17.6822 9.85182 17.5906 9.94439C17.5045 10.0313 17.4182 10.1178 17.3316 10.204C17.2998 10.2358 17.2682 10.2677 17.2367 10.2997C17.1937 10.3433 17.1504 10.3864 17.1069 10.4294C17.0828 10.4537 17.0586 10.478 17.0337 10.503C16.968 10.5508 16.968 10.5508 16.905 10.5468C16.8348 10.5136 16.7904 10.4697 16.7349 10.4153C16.3546 10.0645 15.9214 9.78009 15.4649 9.53906C15.4397 9.52576 15.4145 9.51246 15.3886 9.49876C14.6092 9.09352 13.7663 8.84631 12.8922 8.75859C12.8606 8.75539 12.8289 8.75218 12.7964 8.74888C10.9865 8.59369 9.17967 9.17524 7.77581 10.3195C7.69994 10.3853 7.62543 10.4521 7.55167 10.5202C7.49514 10.572 7.43731 10.621 7.37835 10.67C6.93553 11.0573 6.58828 11.5326 6.27269 12.025C6.2617 12.0419 6.25071 12.0588 6.23939 12.0762C5.89644 12.6066 5.67874 13.1876 5.49222 13.7883C5.44452 13.7787 5.39683 13.7692 5.34769 13.7594C5.3399 13.7955 5.33211 13.8317 5.32409 13.8689C5.30113 13.9723 5.27605 14.0749 5.24934 14.1774C5.11396 14.6973 4.99828 15.2253 4.99494 15.765C4.99473 15.7872 4.99453 15.8094 4.99432 15.8323C4.99085 16.322 4.99207 16.8036 5.08753 17.2859C5.09296 17.3137 5.0984 17.3414 5.104 17.37C5.31291 18.3969 5.71184 19.4663 6.3305 20.3211C6.34308 20.3385 6.35567 20.356 6.36864 20.374C6.78991 20.9553 7.2605 21.5027 7.84054 21.9311C7.89333 21.9701 7.94557 22.0099 7.9978 22.0497C8.24142 22.2339 8.49285 22.3967 8.75862 22.5469C8.77684 22.5574 8.79507 22.5679 8.81384 22.5787C9.5971 23.0271 10.4688 23.2916 11.3602 23.4141C11.3915 23.4185 11.3915 23.4185 11.4235 23.4231C11.6857 23.455 11.9511 23.45 12.2147 23.4502C12.2543 23.4502 12.2543 23.4502 12.2947 23.4503C12.7211 23.4498 13.1362 23.4295 13.5571 23.3562C13.5845 23.3517 13.6119 23.3472 13.6402 23.3426C15.2021 23.0803 16.783 22.2769 17.7234 20.974C17.8463 20.8 17.9599 20.6212 18.0664 20.4367C18.0851 20.4049 18.1037 20.3731 18.1229 20.3403C18.409 19.8373 18.5848 19.2916 18.7162 18.7305C18.7313 18.6734 18.7313 18.6734 18.7602 18.6156C16.5948 18.6156 14.4295 18.6156 12.1985 18.6156C12.1985 17.0512 12.1985 15.4868 12.1985 13.875C16.0236 13.875 19.8488 13.875 23.7899 13.875C23.97 15.3157 24.0606 16.7648 23.8766 18.2109C23.8741 18.2303 23.8717 18.2496 23.8692 18.2695C23.6883 19.6782 23.2867 21.0399 22.6625 22.3156C22.6505 22.3403 22.6384 22.365 22.626 22.3905C22.3435 22.963 22.001 23.5043 21.602 24.0024C21.554 24.0626 21.5076 24.1241 21.4611 24.1855C21.0925 24.656 20.6848 25.1022 20.2344 25.4953C20.2199 25.5081 20.2054 25.5208 20.1905 25.534C18.0964 27.3694 15.3323 28.2652 12.5742 28.3281C12.5502 28.3288 12.5261 28.3294 12.5014 28.33C10.673 28.3725 8.80959 28.017 7.15286 27.234C7.08076 27.2002 7.00829 27.1672 6.93572 27.1344C6.01748 26.7142 5.14687 26.1457 4.38682 25.4805C4.34863 25.4482 4.30965 25.4168 4.27032 25.3859C4.03952 25.2033 3.83268 25.0009 3.62545 24.7923C3.56644 24.733 3.50713 24.674 3.44778 24.615C3.23904 24.4065 3.04426 24.1953 2.86175 23.9633C2.83475 23.9314 2.80753 23.8997 2.78 23.8683C2.34866 23.3737 1.98046 22.8202 1.6502 22.2538C1.62984 22.2189 1.60936 22.1842 1.58872 22.1495C0.620057 20.5202 -0.0078783 18.5338 -0.00968166 16.6317C-0.00986853 16.584 -0.0100631 16.5363 -0.0102648 16.4886C-0.0106078 16.3891 -0.0107184 16.2897 -0.0106838 16.1902C-0.0106791 16.0904 -0.0110758 15.9905 -0.0118694 15.8906C-0.0267066 13.9931 0.448174 12.2258 1.2719 10.5219C1.32914 10.5219 1.38637 10.5219 1.44534 10.5219C1.4519 10.499 1.45846 10.4762 1.46521 10.4527C1.61473 10.0419 1.87368 9.66602 2.11561 9.3042C2.12633 9.28812 2.13705 9.27205 2.1481 9.25548C2.62023 8.5502 3.167 7.90343 3.76507 7.30244C3.78384 7.28353 3.8026 7.26463 3.82194 7.24515C3.95002 7.1175 4.08318 6.99746 4.22034 6.87968C4.24821 6.85524 4.27609 6.8308 4.3048 6.80561C6.56071 4.8613 9.43171 3.87675 14.1352 3.96015Z" fill="#34A853"/>
<path d="M14.1352 3.96015C14.1675 3.96496 14.1999 3.96977 14.2332 3.97472C15.2828 4.1331 16.2901 4.45213 17.2571 4.88515C17.2856 4.89793 17.3142 4.91071 17.3437 4.92388C18.2244 5.32179 19.0459 5.84388 19.8008 6.44609C19.83 6.46916 19.8592 6.49222 19.8893 6.51598C20.0896 6.67667 20.2781 6.84911 20.4657 7.02422C20.3109 7.2118 20.1407 7.38301 19.9692 7.55514C19.9366 7.58796 19.904 7.62079 19.8714 7.65362C19.7651 7.76069 19.6587 7.86761 19.5522 7.97451C19.5154 8.0114 19.4787 8.0483 19.442 8.08519C19.2893 8.23851 19.1365 8.39178 18.9837 8.54495C18.7648 8.76426 18.5463 8.98382 18.328 9.20372C18.1743 9.35853 18.0203 9.51307 17.8661 9.6674C17.7741 9.75955 17.6822 9.85182 17.5906 9.94439C17.5045 10.0313 17.4182 10.1178 17.3316 10.204C17.2998 10.2358 17.2682 10.2677 17.2367 10.2997C17.1937 10.3433 17.1504 10.3864 17.1069 10.4294C17.0828 10.4537 17.0586 10.478 17.0337 10.503C16.968 10.5508 16.968 10.5508 16.905 10.5468C16.8348 10.5136 16.7904 10.4697 16.7349 10.4153C16.3546 10.0645 15.9214 9.78009 15.4649 9.53906C15.4397 9.52576 15.4145 9.51246 15.3886 9.49876C14.6092 9.09352 13.7663 8.84631 12.8922 8.75859C12.8606 8.75539 12.8289 8.75218 12.7964 8.74888C10.9865 8.59369 9.17967 9.17524 7.77581 10.3195C7.69994 10.3853 7.62543 10.4521 7.55167 10.5202C7.49514 10.572 7.43731 10.621 7.37835 10.67C6.93553 11.0573 6.58828 11.5326 6.27269 12.025C6.2617 12.0419 6.25071 12.0588 6.23939 12.0762C5.89644 12.6066 5.67874 13.1876 5.49222 13.7883C5.44452 13.7787 5.39683 13.7692 5.34769 13.7594C5.3399 13.7955 5.33211 13.8317 5.32409 13.8689C5.30113 13.9723 5.27605 14.0749 5.24934 14.1774C5.11396 14.6973 4.99828 15.2253 4.99494 15.765C4.99473 15.7872 4.99453 15.8094 4.99432 15.8323C4.98832 16.6778 5.06451 17.4818 5.35723 18.2831C5.37659 18.3555 5.37659 18.3555 5.34769 18.4422C5.29322 18.4889 5.2391 18.5317 5.18147 18.5741C5.14681 18.6001 5.11214 18.6262 5.07748 18.6523C5.05978 18.6655 5.04207 18.6787 5.02383 18.6924C4.94635 18.7504 4.86971 18.8095 4.79305 18.8686C4.77795 18.8802 4.76285 18.8918 4.74729 18.9037C4.60977 19.0095 4.47286 19.1161 4.33597 19.2227C4.12458 19.3872 3.91256 19.5509 3.70003 19.7141C3.63739 19.7622 3.57476 19.8104 3.51214 19.8586C3.41992 19.9295 3.32769 20.0005 3.23538 20.0713C3.02979 20.2292 2.82501 20.3881 2.62048 20.5473C2.46455 20.6687 2.30812 20.7894 2.15129 20.9096C2.07474 20.9685 1.9987 21.0279 1.92275 21.0876C1.89996 21.1054 1.87718 21.1233 1.8537 21.1416C1.80934 21.1764 1.76503 21.2113 1.7208 21.2462C1.57581 21.3597 1.42649 21.464 1.2719 21.5641C0.515413 20.0541 -0.0080691 18.3325 -0.00968166 16.6317C-0.00986853 16.584 -0.0100631 16.5363 -0.0102648 16.4886C-0.0106078 16.3891 -0.0107184 16.2897 -0.0106838 16.1902C-0.0106791 16.0904 -0.0110758 15.9905 -0.0118694 15.8906C-0.0267066 13.9931 0.448174 12.2258 1.2719 10.5219C1.32914 10.5219 1.38637 10.5219 1.44534 10.5219C1.4519 10.499 1.45846 10.4762 1.46521 10.4527C1.61473 10.0419 1.87368 9.66602 2.11561 9.3042C2.12633 9.28812 2.13705 9.27205 2.1481 9.25548C2.62023 8.5502 3.167 7.90343 3.76507 7.30244C3.78384 7.28353 3.8026 7.26463 3.82194 7.24515C3.95002 7.1175 4.08318 6.99746 4.22034 6.87968C4.24821 6.85524 4.27609 6.8308 4.3048 6.80561C6.56071 4.8613 9.43171 3.87675 14.1352 3.96015Z" fill="#EA4334"/>
<path d="M32.1726 5.54999C40.4267 5.54999 40.4267 5.54999 41.1119 5.73065C41.1628 5.74379 41.1628 5.74379 41.2148 5.75719C41.5039 5.8337 41.7825 5.92694 42.0585 6.04139C42.0799 6.05006 42.1012 6.05873 42.1232 6.06766C42.9164 6.39244 43.6047 6.88275 44.2281 7.46582C44.2922 7.52554 44.3576 7.58279 44.4252 7.63846C44.8457 7.99274 45.1566 8.51068 45.4117 8.98983C45.4213 9.0076 45.4309 9.02536 45.4407 9.04366C45.7434 9.61321 45.9145 10.2645 46.0187 10.8976C46.0243 10.9313 46.0243 10.9313 46.0301 10.9656C46.2748 12.5153 45.9185 14.2055 45.0157 15.4892C44.8618 15.7003 44.6963 15.897 44.5201 16.0898C44.4637 16.1521 44.4091 16.2155 44.3548 16.2796C44.2711 16.3756 44.1812 16.459 44.084 16.5413C44.024 16.5923 43.9664 16.6454 43.9085 16.6988C43.0265 17.4786 41.921 17.9909 40.7704 18.2182C40.7487 18.2225 40.7269 18.2269 40.7045 18.2314C40.237 18.3175 39.7657 18.3355 39.2916 18.3319C39.2351 18.3316 39.1787 18.3314 39.1223 18.3312C38.5074 18.3283 37.8927 18.3154 37.278 18.3014C37.1593 18.2988 37.0405 18.2962 36.9217 18.2937C36.8037 18.2912 36.6858 18.2886 36.5678 18.2861C36.5133 18.2849 36.4587 18.2837 36.4042 18.2825C35.9281 18.2721 35.4525 18.2557 34.9765 18.2398C34.9765 21.0729 34.9765 23.906 34.9765 26.825C34.0512 26.825 33.1259 26.825 32.1726 26.825C32.1726 19.8042 32.1726 12.7835 32.1726 5.54999ZM34.9765 8.15155C34.9765 10.584 34.9765 13.0165 34.9765 15.5226C35.7909 15.5244 36.6053 15.5262 37.4444 15.5281C37.7007 15.5289 37.9571 15.5296 38.2212 15.5305C38.4527 15.5307 38.4527 15.5307 38.6842 15.5309C38.7866 15.531 38.889 15.5313 38.9914 15.5318C39.1227 15.5324 39.254 15.5326 39.3853 15.5324C39.4331 15.5325 39.4808 15.5326 39.5286 15.533C40.5256 15.5397 41.4489 15.2241 42.1712 14.5273C42.5681 14.1354 42.8726 13.7488 43.0992 13.2391C43.1131 13.2082 43.127 13.1774 43.1414 13.1457C43.2863 12.7993 43.3732 12.4008 43.3882 12.025C43.3905 11.9857 43.3905 11.9857 43.3927 11.9456C43.4219 10.992 43.0504 10.0856 42.4022 9.39589C42.3648 9.35678 42.3273 9.31783 42.2898 9.27889C42.273 9.26064 42.2563 9.24238 42.239 9.22357C41.7028 8.65503 40.886 8.18294 40.0961 8.14634C39.9614 8.14372 39.8268 8.14439 39.6922 8.14499C39.6397 8.145 39.5873 8.145 39.5349 8.14497C39.3953 8.14495 39.2557 8.14529 39.1161 8.1457C38.9849 8.14603 38.8536 8.14604 38.7223 8.14608C38.3391 8.14638 37.9559 8.14719 37.5727 8.14794C36.7159 8.14913 35.8592 8.15032 34.9765 8.15155Z" fill="white"/>
<path d="M56.0781 12.632C56.1051 12.6455 56.1321 12.659 56.1599 12.6729C56.5752 12.8859 56.9501 13.1839 57.2921 13.4992C57.3089 13.5146 57.3256 13.53 57.3428 13.5459C58.4433 14.5739 58.9665 16.0276 59.0313 17.5116C59.0382 17.7707 59.0377 18.0297 59.0366 18.2888C59.0362 18.4039 59.0363 18.519 59.0364 18.6341C59.0365 18.8325 59.0362 19.0309 59.0357 19.2293C59.035 19.5161 59.0348 19.8029 59.0347 20.0898C59.0345 20.5554 59.0339 21.021 59.0331 21.4866C59.0323 21.9383 59.0317 22.39 59.0313 22.8417C59.0313 22.8697 59.0312 22.8976 59.0312 22.9264C59.0311 23.0666 59.031 23.2068 59.0309 23.3471C59.03 24.5064 59.0284 25.6657 59.0265 26.825C58.168 26.825 57.3095 26.825 56.425 26.825C56.425 26.1573 56.425 25.4895 56.425 24.8016C56.3101 24.8398 56.2745 24.913 56.21 25.0093C55.8552 25.5206 55.424 25.9663 54.9218 26.3336C54.9059 26.3455 54.8899 26.3575 54.8734 26.3698C54.0884 26.951 53.0799 27.2882 52.1031 27.2934C52.0776 27.2936 52.0521 27.2938 52.0258 27.294C51.9439 27.2945 51.862 27.2947 51.7801 27.2947C51.7521 27.2947 51.7242 27.2948 51.6953 27.2948C51.2903 27.2943 50.8971 27.2832 50.4992 27.2008C50.4737 27.1958 50.4482 27.1909 50.4219 27.1858C49.2559 26.9565 48.0681 26.4232 47.2906 25.4953C47.2689 25.4707 47.2472 25.4461 47.2249 25.4208C46.3681 24.4316 45.9626 23.1533 46.0537 21.8528C46.1555 20.6542 46.6825 19.5516 47.5935 18.7553C48.9 17.66 50.5957 17.3649 52.2588 17.3672C52.2819 17.3673 52.305 17.3673 52.3288 17.3673C53.6984 17.3701 55.0251 17.5764 56.2226 18.2688C56.2057 17.2479 56.1227 16.2646 55.3618 15.4974C54.5422 14.706 53.4672 14.2563 52.3268 14.2743C51.1455 14.3191 50.1144 14.7414 49.3046 15.6131C49.1454 15.7911 49.0002 15.9805 48.8804 16.1875C48.7697 16.1709 48.6926 16.1393 48.5977 16.0805C48.5581 16.0561 48.5581 16.0561 48.5177 16.0313C48.4896 16.0137 48.4614 15.9961 48.4324 15.9779C48.4028 15.9597 48.3733 15.9414 48.3428 15.9226C48.2521 15.8666 48.1616 15.8103 48.0711 15.7539C48.0203 15.7225 47.9695 15.6911 47.9187 15.6597C47.8206 15.5991 47.7226 15.5384 47.6246 15.4776C47.4559 15.373 47.2869 15.2688 47.1178 15.1647C47.0699 15.1352 47.0221 15.1057 46.9742 15.0762C46.7913 14.9636 46.6078 14.8522 46.4234 14.7422C46.4706 14.6151 46.5353 14.5237 46.6239 14.4224C46.638 14.4061 46.652 14.3898 46.6665 14.373C46.9705 14.0223 47.2813 13.6798 47.6474 13.3924C47.6813 13.3657 47.715 13.3388 47.7486 13.3118C49.8168 11.6467 53.0393 11.3607 56.0781 12.632ZM49.4586 20.9281C49.1526 21.3118 48.9674 21.7361 48.9382 22.2289C48.9367 22.2497 48.9352 22.2705 48.9336 22.2919C48.9108 22.8808 49.1292 23.4137 49.5164 23.8477C49.9748 24.3315 50.6649 24.6579 51.3086 24.8016C51.3322 24.8069 51.3558 24.8122 51.3801 24.8176C51.5894 24.8603 51.7927 24.8695 52.0059 24.8684C52.0575 24.8682 52.0575 24.8682 52.1101 24.8679C52.3819 24.8642 52.6352 24.8398 52.8984 24.7727C52.9201 24.7674 52.9419 24.7621 52.9643 24.7567C53.5233 24.6175 54.0614 24.3755 54.5171 24.0211C54.5404 24.0038 54.5637 23.9866 54.5876 23.9688C55.5492 23.2334 56.2146 22.2775 56.3961 21.0727C56.3999 21.0509 56.4038 21.0291 56.4078 21.0067C56.431 20.8669 56.4379 20.7484 56.3961 20.6102C56.2719 20.4746 56.1259 20.4013 55.9625 20.3211C55.9139 20.2959 55.8653 20.2707 55.8168 20.2454C53.912 19.28 51.0018 19.2608 49.4586 20.9281Z" fill="white"/>
<path d="M73.9711 12.2852C73.9956 12.3544 74.003 12.3912 73.9812 12.4623C73.9706 12.4843 73.9601 12.5063 73.9493 12.529C73.9317 12.5666 73.9317 12.5666 73.9138 12.605C73.9008 12.6319 73.8878 12.6588 73.8745 12.6866C73.8474 12.7444 73.8204 12.8022 73.7934 12.86C73.7727 12.9043 73.7727 12.9043 73.7515 12.9494C73.6903 13.0813 73.6323 13.2145 73.5746 13.348C73.5634 13.3738 73.5522 13.3996 73.5407 13.4261C73.5177 13.4791 73.4948 13.5322 73.4718 13.5852C73.4095 13.7293 73.347 13.8734 73.2845 14.0174C73.2718 14.0466 73.2592 14.0758 73.2461 14.1059C73.1183 14.4003 72.9893 14.6941 72.8601 14.9879C72.6984 15.3555 72.5376 15.7235 72.3782 16.0921C72.2521 16.3837 72.1253 16.675 71.9983 16.9662C71.9828 17.0017 71.9828 17.0017 71.9669 17.038C71.9142 17.159 71.8614 17.28 71.8086 17.401C71.7158 17.6138 71.623 17.8267 71.5303 18.0396C71.4791 18.1569 71.428 18.2743 71.3768 18.3916C71.3563 18.4386 71.3359 18.4855 71.3154 18.5325C71.1925 18.8144 71.1925 18.8144 71.1618 18.8848C71.1413 18.9318 71.1209 18.9788 71.1004 19.0257C71.0492 19.1432 70.998 19.2607 70.9468 19.3782C70.8549 19.589 70.763 19.7998 70.6712 20.0107C70.4495 20.5198 70.2272 21.0286 70.0038 21.537C69.8403 21.9088 69.6777 22.281 69.5165 22.6538C69.3904 22.9454 69.2636 23.2367 69.1366 23.5279C69.1211 23.5635 69.1211 23.5635 69.1052 23.5998C69.0525 23.7207 68.9997 23.8417 68.9469 23.9627C68.8541 24.1755 68.7613 24.3884 68.6685 24.6013C68.6174 24.7186 68.5662 24.836 68.5151 24.9533C68.4946 25.0003 68.4741 25.0473 68.4537 25.0942C68.3308 25.3761 68.3308 25.3761 68.3001 25.4465C68.2796 25.4935 68.2591 25.5405 68.2387 25.5874C68.1875 25.7049 68.1363 25.8224 68.085 25.9399C67.9931 26.1507 67.9012 26.3615 67.8094 26.5724C67.5878 27.0815 67.3655 27.5903 67.142 28.0987C66.9786 28.4705 66.816 28.8427 66.6548 29.2155C66.5286 29.5071 66.4019 29.7984 66.2749 30.0896C66.2645 30.1133 66.2542 30.137 66.2435 30.1615C66.1908 30.2825 66.138 30.4034 66.0852 30.5244C66.0025 30.7139 65.9199 30.9035 65.8373 31.093C65.7967 31.1862 65.7561 31.2793 65.7155 31.3724C65.6203 31.5907 65.5252 31.8091 65.4302 32.0275C65.3858 32.1296 65.3414 32.2317 65.297 32.3339C65.276 32.3821 65.255 32.4304 65.2341 32.4786C65.2048 32.5459 65.1756 32.6133 65.1463 32.6805C65.138 32.6997 65.1297 32.7188 65.1211 32.7385C65.0389 32.9272 64.952 33.113 64.8657 33.3C63.9404 33.3 63.0151 33.3 62.0618 33.3C62.1025 33.1777 62.1432 33.0699 62.1975 32.9545C62.2132 32.921 62.2289 32.8875 62.245 32.853C62.2622 32.8165 62.2794 32.78 62.2966 32.7436C62.3146 32.7052 62.3327 32.6668 62.3507 32.6284C62.3986 32.5262 62.4466 32.4241 62.4947 32.322C62.524 32.2599 62.5533 32.1978 62.5825 32.1356C62.6605 31.9701 62.7384 31.8045 62.8164 31.639C62.9367 31.3837 63.0561 31.128 63.1747 30.8719C63.3224 30.5528 63.4718 30.2345 63.6216 29.9165C63.7575 29.6282 63.8928 29.3397 64.0274 29.0508C64.1718 28.7409 64.3171 28.4314 64.4628 28.1222C64.6983 27.6223 64.6983 27.6223 64.9305 27.1209C65.0016 26.9662 65.0738 26.8123 65.15 26.66C65.1866 26.5866 65.2226 26.5129 65.2586 26.4391C65.2841 26.3875 65.3105 26.3363 65.3369 26.2851C65.4351 26.0933 65.4351 26.0933 65.4213 25.8868C65.401 25.8425 65.3795 25.7987 65.3571 25.7555C65.3308 25.6956 65.3045 25.6357 65.2784 25.5757C65.2548 25.5241 65.2312 25.4724 65.2074 25.4208C65.1619 25.3218 65.1168 25.2226 65.0717 25.1234C65.0621 25.1022 65.0525 25.0809 65.0425 25.0591C64.9271 24.8044 64.8151 24.5483 64.7031 24.2921C64.5183 23.87 64.3322 23.4484 64.1448 23.0274C63.9552 22.6013 63.766 22.175 63.5775 21.7483C63.5663 21.7228 63.555 21.6973 63.5434 21.671C63.4865 21.5423 63.4297 21.4136 63.3729 21.2849C63.2587 21.0262 63.1444 20.7676 63.0301 20.509C62.9845 20.4057 62.9388 20.3024 62.8932 20.199C62.8819 20.1734 62.8705 20.1478 62.8589 20.1215C62.7893 19.9641 62.7198 19.8067 62.6503 19.6493C62.592 19.5173 62.5338 19.3853 62.4755 19.2534C62.464 19.2274 62.4526 19.2015 62.4408 19.1748C62.2761 18.8019 62.1107 18.4294 61.9449 18.057C61.7924 17.7144 61.6414 17.3711 61.4909 17.0276C61.3072 16.6085 61.1223 16.19 60.9362 15.772C60.724 15.2951 60.5123 14.8179 60.3017 14.3404C60.2792 14.2894 60.2567 14.2385 60.2342 14.1875C60.2231 14.1623 60.212 14.137 60.2005 14.111C60.1277 13.9462 60.0547 13.7816 59.9814 13.617C59.9307 13.5029 59.88 13.3887 59.8293 13.2745C59.8051 13.2202 59.781 13.166 59.7567 13.1117C59.7231 13.0364 59.6897 12.961 59.6562 12.8856C59.6464 12.8637 59.6366 12.8418 59.6265 12.8193C59.561 12.6712 59.5119 12.527 59.4602 12.3719C60.4523 12.3719 61.4443 12.3719 62.4665 12.3719C62.7383 13.0301 62.7383 13.0301 63.0157 13.7016C63.1786 14.0928 63.1786 14.0928 63.3417 14.484C63.4569 14.7601 63.5714 15.0366 63.6859 15.3131C63.8667 15.7493 64.048 16.1853 64.2297 16.6211C64.4084 17.0497 64.5868 17.4784 64.7645 17.9074C64.9435 18.3394 65.123 18.7712 65.3029 19.2028C65.3152 19.2323 65.3274 19.2617 65.3401 19.2921C65.4428 19.5384 65.5455 19.7847 65.6482 20.031C65.7023 20.1608 65.7564 20.2907 65.8105 20.4205C65.8191 20.441 65.8276 20.4615 65.8365 20.4826C66.0046 20.886 66.172 21.2898 66.3393 21.6935C66.4932 22.0649 66.6475 22.4361 66.8024 22.807C66.8215 22.807 66.8405 22.807 66.8602 22.807C67.592 21.0156 67.592 21.0156 68.3202 19.2228C68.4742 18.8425 68.6292 18.4625 68.7843 18.0827C68.7963 18.0532 68.8084 18.0237 68.8208 17.9933C68.8329 17.9636 68.845 17.934 68.8575 17.9034C69.0428 17.4495 69.228 16.9956 69.413 16.5416C69.4265 16.5085 69.44 16.4753 69.4539 16.4411C69.6256 16.0198 69.7969 15.5983 69.9676 15.1766C70.1499 14.7264 70.3334 14.2768 70.5171 13.8273C70.7152 13.3424 70.9123 12.8571 71.1094 12.3719C72.0538 12.3719 72.9982 12.3719 73.9711 12.3719C73.9711 12.3433 73.9711 12.3146 73.9711 12.2852Z" fill="white"/>
<path d="M12.1985 13.875C16.0237 13.875 19.8488 13.875 23.7899 13.875C23.97 15.3157 24.0606 16.7648 23.8766 18.2109C23.8729 18.2399 23.8729 18.2399 23.8692 18.2695C23.6883 19.6783 23.2867 21.0399 22.6625 22.3156C22.6445 22.3527 22.6445 22.3527 22.626 22.3905C22.3435 22.963 22.0011 23.5043 21.6021 24.0024C21.554 24.0626 21.5076 24.1241 21.4611 24.1855C21.2504 24.4545 21.0228 24.7098 20.7909 24.9605C20.7735 24.9796 20.7561 24.9986 20.7382 25.0182C20.6192 25.1455 20.4926 25.2508 20.35 25.3508C20.0856 25.154 19.8233 24.9549 19.5634 24.752C19.3558 24.59 19.1467 24.43 18.9373 24.2703C18.8324 24.1903 18.7277 24.1102 18.6229 24.0301C18.6024 24.0145 18.5819 23.9988 18.5608 23.9827C18.3466 23.8188 18.1329 23.6543 17.9192 23.4897C17.7421 23.3534 17.5647 23.2174 17.3872 23.0816C17.2102 22.9464 17.0333 22.8109 16.8569 22.6748C16.7914 22.6245 16.7258 22.5744 16.66 22.5246C16.6426 22.5114 16.6252 22.4982 16.6073 22.4846C16.5739 22.4592 16.5405 22.434 16.5069 22.4088C16.3931 22.3221 16.3931 22.3221 16.361 22.2578C16.3831 22.2434 16.4052 22.229 16.4279 22.2141C17.12 21.7502 17.6505 21.1569 18.0665 20.4367C18.0944 20.389 18.0944 20.389 18.1229 20.3403C18.409 19.8373 18.5849 19.2916 18.7162 18.7305C18.7313 18.6734 18.7313 18.6734 18.7602 18.6156C16.5948 18.6156 14.4295 18.6156 12.1985 18.6156C12.1985 17.0512 12.1985 15.4868 12.1985 13.875Z" fill="#4185F3"/>
<path d="M1.2719 10.5219C1.3196 10.5219 1.36729 10.5219 1.41644 10.5219C1.418 10.553 1.418 10.553 1.4196 10.5847C1.45575 10.6994 1.53252 10.7482 1.62601 10.8163C1.65343 10.8371 1.65343 10.8371 1.68142 10.8582C1.71925 10.8868 1.7572 10.9153 1.79527 10.9436C1.87449 11.0026 1.95253 11.063 2.03069 11.1235C2.06155 11.1471 2.09242 11.1708 2.12328 11.1945C2.2446 11.2877 2.36526 11.3818 2.48597 11.4758C2.69735 11.6403 2.90936 11.8041 3.1219 11.9672C3.35708 12.1476 3.59146 12.329 3.82535 12.5111C4.01426 12.6582 4.20386 12.8043 4.39378 12.95C4.51916 13.0462 4.64443 13.1425 4.76956 13.239C4.79128 13.2558 4.813 13.2725 4.83538 13.2898C4.90623 13.3445 4.97702 13.3992 5.04778 13.454C5.07041 13.4715 5.09303 13.4889 5.11634 13.5069C5.13761 13.5234 5.15888 13.5399 5.1808 13.5569C5.19975 13.5716 5.2187 13.5862 5.23823 13.6013C5.28759 13.6419 5.33231 13.6845 5.37659 13.7304C5.37019 13.7522 5.36379 13.774 5.3572 13.7964C5.17009 14.4381 4.9991 15.0919 4.99494 15.7649C4.99463 15.7983 4.99463 15.7983 4.99432 15.8323C4.98832 16.6778 5.06451 17.4818 5.35723 18.2831C5.37659 18.3554 5.37659 18.3554 5.34768 18.4422C5.29322 18.4888 5.2391 18.5316 5.18147 18.574C5.14681 18.6001 5.11214 18.6262 5.07748 18.6523C5.05978 18.6655 5.04207 18.6787 5.02383 18.6923C4.94635 18.7504 4.86971 18.8094 4.79305 18.8685C4.77795 18.8801 4.76285 18.8917 4.74729 18.9037C4.60977 19.0095 4.47286 19.116 4.33597 19.2226C4.12458 19.3872 3.91256 19.5509 3.70003 19.714C3.63739 19.7622 3.57476 19.8104 3.51214 19.8586C3.41992 19.9295 3.32769 20.0005 3.23538 20.0713C3.02979 20.2292 2.82501 20.3881 2.62048 20.5473C2.46455 20.6687 2.30812 20.7894 2.15129 20.9096C2.07474 20.9684 1.9987 21.0279 1.92275 21.0875C1.89996 21.1054 1.87717 21.1232 1.8537 21.1416C1.80934 21.1764 1.76503 21.2112 1.7208 21.2462C1.5758 21.3597 1.42649 21.464 1.2719 21.564C0.515413 20.0541 -0.0080691 18.3325 -0.00968167 16.6317C-0.00986853 16.584 -0.0100631 16.5363 -0.0102648 16.4886C-0.0106078 16.3891 -0.0107184 16.2897 -0.0106838 16.1902C-0.0106791 16.0903 -0.0110758 15.9905 -0.0118694 15.8906C-0.0267066 13.9931 0.448174 12.2258 1.2719 10.5219Z" fill="#FABB04"/>
</g>
<defs>
<clipPath id="clip0_95_144">
<rect width="74" height="35.2656" fill="white"/>
</clipPath>
</defs>
</svg>
