<svg width="24" height="24" viewBox="0 0 24 24" fill="none" xmlns="http://www.w3.org/2000/svg">
<g clip-path="url(#clip0_95_133)">
<path d="M15.4499 16.52L12.4399 13.51C12.3299 13.4 12.1999 13.38 12.1299 13.38C12.0599 13.38 11.9299 13.4 11.8199 13.51L8.79991 16.53C8.45991 16.87 7.92991 17.42 6.15991 17.42L9.86991 21.12C11.0399 22.29 12.9399 22.29 14.1099 21.12L17.8299 17.41C16.9199 17.41 16.1599 17.23 15.4499 16.52Z" fill="#00FFC4"/>
<path d="M8.79994 7.47L11.8199 10.49C11.8999 10.57 12.0199 10.62 12.1299 10.62C12.2399 10.62 12.3599 10.57 12.4399 10.49L15.4299 7.5C16.1399 6.76 16.9499 6.59 17.8599 6.59L14.1399 2.88C12.9699 1.71 11.0699 1.71 9.89994 2.88L6.18994 6.58C7.94994 6.58 8.48994 7.16 8.79994 7.47Z" fill="#00FFC4"/>
<path d="M21.1099 9.85001L18.8599 7.59001H17.5999C17.0599 7.59001 16.5199 7.81001 16.1499 8.20001L13.1499 11.2C12.8699 11.48 12.4999 11.62 12.1299 11.62C11.7699 11.62 11.3899 11.47 11.1099 11.2L8.08994 8.17001C7.70994 7.79001 7.18994 7.57001 6.63994 7.57001H5.16994L2.87994 9.87001C1.70994 11.04 1.70994 12.94 2.87994 14.11L5.16994 16.41H6.64994C7.18994 16.41 7.70994 16.19 8.09994 15.81L11.1199 12.79C11.3999 12.51 11.7699 12.37 12.1399 12.37C12.5099 12.37 12.8799 12.51 13.1599 12.79L16.1699 15.8C16.5499 16.18 17.0699 16.4 17.6199 16.4H18.8799L21.1299 14.14C22.2999 12.96 22.2999 11.04 21.1099 9.85001Z" fill="#00FFC4"/>
</g>
<defs>
<clipPath id="clip0_95_133">
<rect width="24" height="24" fill="white"/>
</clipPath>
</defs>
</svg>
