<svg width="60" height="19" viewBox="0 0 60 19" fill="none" xmlns="http://www.w3.org/2000/svg">
<path d="M6.44978 17.1795C6.50857 17.1795 6.55347 17.1795 6.5845 17.1795C6.61715 17.1795 6.64001 17.1795 6.65308 17.1795C6.73472 17.1795 6.80738 17.173 6.87107 17.1599C6.93475 17.1452 6.98945 17.1207 7.03517 17.0864C7.08252 17.0505 7.11763 17.0007 7.14049 16.937C7.16498 16.8733 7.17723 16.7917 7.17723 16.6921C7.17723 16.5876 7.156 16.5011 7.11355 16.4325C7.07109 16.3623 7.01068 16.31 6.9323 16.2757C6.85392 16.2398 6.76085 16.2218 6.65308 16.2218H6.44978V17.1795ZM7.4442 16.6945C7.4442 16.8758 7.40828 17.017 7.33643 17.1183C7.26622 17.2179 7.16662 17.2873 7.03762 17.3265C6.90862 17.3657 6.75676 17.3853 6.58205 17.3853C6.55592 17.3853 6.51347 17.3853 6.45468 17.3853C6.3959 17.3853 6.31181 17.3853 6.2024 17.3853V16.0063C6.31834 16.0063 6.40406 16.0063 6.45958 16.0063C6.51673 16.0063 6.55755 16.0063 6.58205 16.0063C6.75676 16.0063 6.90862 16.0324 7.03762 16.0847C7.16662 16.1353 7.26622 16.2112 7.33643 16.3125C7.40828 16.4137 7.4442 16.5411 7.4442 16.6945ZM10.4384 17.3412V16.0504H10.6857V17.3412H10.4384ZM10.2522 17.3853V17.1722H10.867V17.3853H10.2522ZM10.2522 16.2218V16.0063H10.867V16.2218H10.2522ZM14.2787 17.4122C14.202 17.4122 14.1277 17.4032 14.0558 17.3853C13.984 17.3689 13.9187 17.3412 13.8599 17.302C13.8027 17.2628 13.7562 17.213 13.7203 17.1526C13.686 17.0922 13.668 17.0187 13.6664 16.9321H13.9187C13.9187 16.9387 13.9203 16.9517 13.9236 16.9713C13.9268 16.9893 13.935 17.0105 13.948 17.035C13.9627 17.0595 13.9832 17.0832 14.0093 17.106C14.037 17.1289 14.0738 17.1485 14.1195 17.1648C14.1669 17.1795 14.2256 17.1869 14.2959 17.1869C14.3448 17.1869 14.3865 17.182 14.4208 17.1722C14.4567 17.1624 14.4861 17.1493 14.5089 17.133C14.5334 17.1166 14.5514 17.0987 14.5628 17.0791C14.5743 17.0579 14.58 17.0375 14.58 17.0179C14.58 16.9721 14.5636 16.9362 14.531 16.9101C14.5 16.8823 14.4575 16.8603 14.4036 16.844C14.3514 16.826 14.2934 16.8105 14.2297 16.7974C14.1677 16.7827 14.1048 16.7656 14.0411 16.746C13.9791 16.7264 13.9219 16.7011 13.8697 16.6701C13.8174 16.6374 13.7766 16.5958 13.7472 16.5451C13.7194 16.4945 13.7072 16.43 13.7105 16.3516C13.717 16.2749 13.7439 16.2088 13.7913 16.1532C13.8386 16.0977 13.9048 16.0553 13.9897 16.0259C14.0746 15.9965 14.1734 15.9818 14.2861 15.9818C14.384 15.9818 14.4747 15.9998 14.5579 16.0357C14.6428 16.07 14.7106 16.1222 14.7612 16.1924C14.8135 16.261 14.8396 16.3492 14.8396 16.457H14.5971C14.5971 16.4063 14.5857 16.3655 14.5628 16.3345C14.54 16.3018 14.5106 16.2773 14.4747 16.261C14.4404 16.2431 14.4036 16.2316 14.3644 16.2267C14.3252 16.2202 14.2901 16.2169 14.2591 16.2169C14.1775 16.2169 14.1097 16.2308 14.0558 16.2586C14.0036 16.2847 13.9774 16.3255 13.9774 16.381C13.9758 16.4284 13.9913 16.4659 14.024 16.4937C14.0566 16.5198 14.0999 16.5411 14.1538 16.5574C14.2077 16.5737 14.2665 16.5892 14.3301 16.6039C14.3938 16.617 14.4575 16.6325 14.5212 16.6505C14.5849 16.6684 14.642 16.6929 14.6926 16.7239C14.7449 16.755 14.7857 16.7958 14.8151 16.8464C14.8461 16.897 14.8592 16.9632 14.8543 17.0448C14.851 17.1215 14.8241 17.1877 14.7735 17.2432C14.7228 17.2971 14.6551 17.3387 14.5702 17.3681C14.4869 17.3975 14.3897 17.4122 14.2787 17.4122ZM18.214 16.0504V17.3853H17.9642V16.0504H18.214ZM17.5576 16.2218V16.0063H18.623V16.2218H17.5576ZM21.4212 17.3853V16.0063H21.9282C22.0474 16.0063 22.1487 16.0194 22.232 16.0455C22.3169 16.0716 22.3814 16.1141 22.4254 16.1728C22.4712 16.23 22.494 16.3092 22.494 16.4104C22.494 16.4855 22.4818 16.5517 22.4573 16.6088C22.4344 16.6643 22.3993 16.7084 22.352 16.7411C22.3062 16.7721 22.2491 16.7876 22.1805 16.7876C22.2295 16.7876 22.2679 16.7974 22.2956 16.817C22.3234 16.835 22.3438 16.8595 22.3569 16.8905C22.3716 16.9199 22.3814 16.9517 22.3863 16.986C22.3912 17.0203 22.3952 17.0538 22.3985 17.0864C22.4034 17.1191 22.4108 17.1477 22.4206 17.1722C22.4303 17.195 22.4459 17.2105 22.4671 17.2187C22.4883 17.2252 22.5193 17.2211 22.5602 17.2065V17.351C22.5291 17.3771 22.4924 17.3942 22.4499 17.4024C22.4075 17.4122 22.3658 17.4097 22.325 17.3951C22.2842 17.3804 22.2499 17.3518 22.2222 17.3093C22.1944 17.2652 22.1805 17.204 22.1805 17.1256C22.1805 17.0685 22.1781 17.0203 22.1732 16.9811C22.1683 16.9419 22.1568 16.9109 22.1389 16.888C22.1226 16.8636 22.0956 16.8456 22.0581 16.8342C22.0221 16.8211 21.9731 16.8137 21.9111 16.8121C21.849 16.8088 21.769 16.8097 21.6711 16.8146V17.3853H21.4212ZM21.6711 16.6333H21.9184C22.0001 16.6333 22.0662 16.63 22.1168 16.6235C22.1691 16.6154 22.2075 16.5966 22.232 16.5672C22.2581 16.5378 22.2711 16.4921 22.2711 16.43C22.2711 16.3598 22.2556 16.3092 22.2246 16.2782C22.1936 16.2471 22.1479 16.2284 22.0874 16.2218C22.0287 16.2137 21.956 16.2096 21.8695 16.2096H21.6711V16.6333ZM25.5476 17.3412V16.0504H25.7949V17.3412H25.5476ZM25.3614 17.3853V17.1722H25.9762V17.3853H25.3614ZM25.3614 16.2218V16.0063H25.9762V16.2218H25.3614ZM28.8466 17.3853V16.0063H29.3928C29.4336 16.0063 29.4777 16.0079 29.5251 16.0112C29.5741 16.0145 29.6222 16.0226 29.6696 16.0357C29.7186 16.0471 29.7627 16.0667 29.8018 16.0945C29.841 16.1206 29.8729 16.1565 29.8974 16.2022C29.9219 16.2463 29.9341 16.3027 29.9341 16.3712C29.9341 16.4235 29.9235 16.4717 29.9023 16.5157C29.8827 16.5598 29.8459 16.5966 29.792 16.626C29.7382 16.6537 29.6598 16.6701 29.5569 16.675V16.6823C29.6745 16.6856 29.7651 16.7027 29.8288 16.7337C29.8925 16.7631 29.9366 16.8023 29.961 16.8513C29.9855 16.9003 29.9978 16.955 29.9978 17.0154C29.9978 17.0856 29.9847 17.1436 29.9586 17.1893C29.9341 17.235 29.8998 17.2718 29.8557 17.2995C29.8116 17.3257 29.7635 17.3452 29.7112 17.3583C29.659 17.3697 29.6059 17.3771 29.552 17.3804C29.4998 17.3836 29.4508 17.3853 29.4051 17.3853H28.8466ZM29.094 17.1844H29.3855C29.4491 17.1844 29.5079 17.1811 29.5618 17.1746C29.6157 17.1664 29.659 17.1477 29.6916 17.1183C29.7243 17.0889 29.7406 17.0432 29.7406 16.9811C29.7406 16.9158 29.7235 16.8684 29.6892 16.8391C29.6565 16.8097 29.6116 16.7909 29.5545 16.7827C29.4989 16.7746 29.4377 16.7705 29.3708 16.7705H29.094V17.1844ZM29.0915 16.5794H29.3634C29.4206 16.5794 29.4736 16.5762 29.5226 16.5696C29.5716 16.5631 29.6108 16.5476 29.6402 16.5231C29.6712 16.497 29.6867 16.4553 29.6867 16.3982C29.6867 16.3378 29.6712 16.2945 29.6402 16.2684C29.6108 16.2422 29.5716 16.2259 29.5226 16.2194C29.4736 16.2128 29.4206 16.2096 29.3634 16.2096H29.0915V16.5794ZM33.3841 17.4195C33.1898 17.4195 33.0412 17.3657 32.9384 17.2579C32.8355 17.1485 32.7841 16.995 32.7841 16.7974V16.0063H33.051V16.795C33.051 16.8717 33.06 16.9354 33.078 16.986C33.0976 17.035 33.1229 17.0742 33.1539 17.1036C33.1866 17.1313 33.2225 17.1518 33.2617 17.1648C33.3025 17.1762 33.3433 17.182 33.3841 17.182C33.4462 17.182 33.5025 17.1713 33.5531 17.1501C33.6038 17.1273 33.6438 17.0881 33.6732 17.0326C33.7042 16.9754 33.7197 16.8962 33.7197 16.795V16.0063H33.9842V16.7974C33.9842 16.9983 33.9336 17.1526 33.8324 17.2603C33.7328 17.3665 33.5833 17.4195 33.3841 17.4195ZM37.0158 17.3412V16.0504H37.2632V17.3412H37.0158ZM36.8297 17.3853V17.1722H37.4444V17.3853H36.8297ZM36.8297 16.2218V16.0063H37.4444V16.2218H36.8297ZM40.5818 17.1795C40.6406 17.1795 40.6855 17.1795 40.7165 17.1795C40.7492 17.1795 40.7721 17.1795 40.7851 17.1795C40.8668 17.1795 40.9394 17.173 41.0031 17.1599C41.0668 17.1452 41.1215 17.1207 41.1672 17.0864C41.2146 17.0505 41.2497 17.0007 41.2725 16.937C41.297 16.8733 41.3093 16.7917 41.3093 16.6921C41.3093 16.5876 41.288 16.5011 41.2456 16.4325C41.2031 16.3623 41.1427 16.31 41.0643 16.2757C40.986 16.2398 40.8929 16.2218 40.7851 16.2218H40.5818V17.1795ZM41.5762 16.6945C41.5762 16.8758 41.5403 17.017 41.4685 17.1183C41.3983 17.2179 41.2987 17.2873 41.1697 17.3265C41.0407 17.3657 40.8888 17.3853 40.7141 17.3853C40.688 17.3853 40.6455 17.3853 40.5867 17.3853C40.5279 17.3853 40.4438 17.3853 40.3344 17.3853V16.0063C40.4504 16.0063 40.5361 16.0063 40.5916 16.0063C40.6488 16.0063 40.6896 16.0063 40.7141 16.0063C40.8888 16.0063 41.0407 16.0324 41.1697 16.0847C41.2987 16.1353 41.3983 16.2112 41.4685 16.3125C41.5403 16.4137 41.5762 16.5411 41.5762 16.6945ZM44.9791 17.4195C44.7571 17.4195 44.5873 17.355 44.4697 17.226C44.3521 17.0954 44.2933 16.9199 44.2933 16.6994C44.2933 16.5541 44.3186 16.4284 44.3693 16.3223C44.4199 16.2145 44.4958 16.1312 44.5971 16.0724C44.6999 16.012 44.8273 15.9818 44.9791 15.9818C45.2029 15.9818 45.3727 16.0471 45.4886 16.1777C45.6062 16.3067 45.665 16.4806 45.665 16.6994C45.665 16.8415 45.6388 16.9672 45.5866 17.0766C45.5343 17.1844 45.4576 17.2685 45.3563 17.3289C45.2551 17.3893 45.1294 17.4195 44.9791 17.4195ZM44.9767 17.1795C45.0763 17.1795 45.1588 17.1591 45.2241 17.1183C45.2894 17.0758 45.3384 17.0187 45.371 16.9468C45.4037 16.8733 45.42 16.7909 45.42 16.6994C45.42 16.6064 45.4037 16.5239 45.371 16.4521C45.3384 16.3786 45.2894 16.3214 45.2241 16.2806C45.1588 16.2382 45.0763 16.2169 44.9767 16.2169C44.833 16.2169 44.7236 16.261 44.6485 16.3492C44.5734 16.4374 44.5358 16.5541 44.5358 16.6994C44.5358 16.7893 44.5513 16.8709 44.5824 16.9444C44.615 17.0162 44.664 17.0734 44.7293 17.1158C44.7946 17.1583 44.8771 17.1795 44.9767 17.1795ZM48.4579 17.3853V16.0063H48.9649C49.0841 16.0063 49.1854 16.0194 49.2686 16.0455C49.3535 16.0716 49.418 16.1141 49.4621 16.1728C49.5079 16.23 49.5307 16.3092 49.5307 16.4104C49.5307 16.4855 49.5185 16.5517 49.494 16.6088C49.4711 16.6643 49.436 16.7084 49.3887 16.7411C49.3429 16.7721 49.2858 16.7876 49.2172 16.7876C49.2662 16.7876 49.3046 16.7974 49.3323 16.817C49.3601 16.835 49.3805 16.8595 49.3936 16.8905C49.4083 16.9199 49.418 16.9517 49.4229 16.986C49.4278 17.0203 49.4319 17.0538 49.4352 17.0864C49.4401 17.1191 49.4474 17.1477 49.4572 17.1722C49.467 17.195 49.4825 17.2105 49.5038 17.2187C49.525 17.2252 49.556 17.2211 49.5968 17.2065V17.351C49.5658 17.3771 49.5291 17.3942 49.4866 17.4024C49.4442 17.4122 49.4025 17.4097 49.3617 17.3951C49.3209 17.3804 49.2866 17.3518 49.2588 17.3093C49.2311 17.2652 49.2172 17.204 49.2172 17.1256C49.2172 17.0685 49.2148 17.0203 49.2099 16.9811C49.205 16.9419 49.1935 16.9109 49.1756 16.888C49.1592 16.8636 49.1323 16.8456 49.0947 16.8342C49.0588 16.8211 49.0098 16.8137 48.9478 16.8121C48.8857 16.8088 48.8057 16.8097 48.7077 16.8146V17.3853H48.4579ZM48.7077 16.6333H48.9551C49.0368 16.6333 49.1029 16.63 49.1535 16.6235C49.2058 16.6154 49.2441 16.5966 49.2686 16.5672C49.2948 16.5378 49.3078 16.4921 49.3078 16.43C49.3078 16.3598 49.2923 16.3092 49.2613 16.2782C49.2303 16.2471 49.1845 16.2284 49.1241 16.2218C49.0653 16.2137 48.9927 16.2096 48.9061 16.2096H48.7077V16.6333ZM52.3216 17.3853L52.7625 16.0063H53.1715L53.6246 17.3853H53.3577L52.9707 16.1116L52.5861 17.3853H52.3216ZM52.618 16.9958L52.6204 16.8023H53.3185L53.3209 16.9958H52.618Z" fill="#191923"/>
<path d="M19.5164 4.13257C21.0765 4.13257 22.3734 4.8252 23.2048 5.92847V4.33081H24.4958V13.7126H23.2048V12.113C22.3734 13.2168 21.0768 13.9109 19.5164 13.9109C16.8559 13.9107 14.6638 11.7917 14.6638 9.02124C14.6639 6.25086 16.856 4.13271 19.5164 4.13257ZM39.4646 4.13257C41.025 4.13258 42.3216 4.82574 43.1531 5.92944V4.33081H44.4441V13.7126H43.1531V12.1121C42.3217 13.2162 41.0254 13.9109 39.4646 13.9109C36.804 13.9109 34.6111 11.7918 34.6111 9.02124C34.6112 6.25077 36.8041 4.13257 39.4646 4.13257ZM56.074 4.13257C57.5957 4.13257 58.7867 4.86858 59.3074 6.04468L59.3757 6.198L59.2302 6.28198L58.4734 6.71362L58.2878 6.82007L58.2087 6.62183C57.8677 5.77762 57.0166 5.3689 56.074 5.3689C55.5183 5.36893 55.0192 5.51523 54.6638 5.77515C54.3134 6.03148 54.0975 6.40059 54.0974 6.87671C54.0974 7.14027 54.1709 7.34285 54.2947 7.50757C54.421 7.67554 54.6077 7.81512 54.8484 7.93628C55.3376 8.18251 55.9927 8.32774 56.6892 8.5105C57.3697 8.68904 58.0844 8.90216 58.6277 9.29272C59.1848 9.69333 59.5574 10.2777 59.5574 11.1658C59.5574 12.7817 58.1373 13.9109 56.1462 13.9109C54.2835 13.9109 53.0137 13.0299 52.5486 11.7898L52.4929 11.6423L52.6287 11.5632L53.4041 11.113L53.6013 10.9988L53.6736 11.2156C53.9656 12.0909 54.8495 12.6736 56.1462 12.6736C56.7529 12.6736 57.2946 12.5391 57.6785 12.2839C58.0551 12.0335 58.2849 11.6654 58.2849 11.1658C58.2849 10.8969 58.2111 10.69 58.0867 10.5212C57.96 10.3495 57.7734 10.2066 57.533 10.0828C57.0443 9.83117 56.389 9.6825 55.6931 9.49878C55.0132 9.31926 54.2995 9.10703 53.7566 8.72241C53.1996 8.32778 52.825 7.75269 52.825 6.87671C52.8251 5.32561 54.1605 4.13265 56.074 4.13257ZM9.99487 4.13257C10.9907 4.13265 11.8613 4.45762 12.4832 5.09155C13.1051 5.72559 13.4597 6.64991 13.4597 7.81421V13.7126H12.1873V7.81421C12.1873 6.99394 11.9501 6.3864 11.5671 5.98511C11.1848 5.58449 10.6377 5.3689 9.97632 5.3689C9.26205 5.36893 8.64004 5.60593 8.19507 6.10034C7.74832 6.59685 7.45972 7.37615 7.45972 8.49878V13.7126H6.18628V7.81421C6.18628 6.99031 5.96603 6.38151 5.60229 5.9812C5.24049 5.58305 4.71722 5.36895 4.06616 5.3689C3.37001 5.3689 2.7229 5.6062 2.24976 6.10425C1.77672 6.60232 1.45875 7.38106 1.45874 8.49878V13.7126H0.186279V4.33081H1.45874V5.43726C2.16185 4.51982 3.14298 4.13268 4.17358 4.13257C5.43102 4.13257 6.45159 4.70188 7.00269 5.75464C7.70818 4.64554 8.83031 4.13257 9.99487 4.13257ZM30.8123 4.20483V5.44116H30.6267C29.8889 5.44116 29.1858 5.66834 28.6687 6.15601C28.1542 6.64149 27.8036 7.40436 27.8035 8.51636V13.7126H26.53V4.33081H27.8035V5.56226C28.083 5.1576 28.4208 4.85483 28.8005 4.64038C29.3581 4.32556 29.9913 4.20483 30.6267 4.20483H30.8123ZM33.1794 4.33081V13.7126H31.907V4.33081H33.1794ZM47.7507 0.186279V13.7126H46.4783V0.186279H47.7507ZM51.0681 4.33081V13.7126H49.7957V4.33081H51.0681ZM19.5886 5.3689C17.5481 5.36894 15.9549 6.97848 15.9548 9.02124C15.9548 11.0641 17.5481 12.6735 19.5886 12.6736C21.628 12.6736 23.2048 11.0653 23.2048 9.02124C23.2047 6.9773 21.628 5.3689 19.5886 5.3689ZM39.5369 5.3689C37.4964 5.3689 35.9022 6.97846 35.9021 9.02124C35.9021 11.0641 37.4963 12.6736 39.5369 12.6736C41.5762 12.6735 43.1531 11.0652 43.1531 9.02124C43.153 6.97737 41.5761 5.36901 39.5369 5.3689ZM32.5427 0.726318C33.0387 0.726318 33.4498 1.13097 33.45 1.61499C33.45 2.11409 33.0418 2.52222 32.5427 2.52222C32.0438 2.52203 31.6365 2.11397 31.6365 1.61499C31.6366 1.13108 32.0469 0.726507 32.5427 0.726318ZM50.4324 0.726318C50.9282 0.726468 51.3385 1.13106 51.3386 1.61499C51.3386 2.114 50.9313 2.52207 50.4324 2.52222C49.9333 2.52222 49.5251 2.11409 49.5251 1.61499C49.5253 1.13097 49.9364 0.726318 50.4324 0.726318Z" fill="#191923" stroke="#191923" stroke-width="0.371771"/>
</svg>
