<svg width="816" height="166" viewBox="0 0 816 166" fill="none" xmlns="http://www.w3.org/2000/svg">
<path d="M60.8845 0.0466049C62.9318 0.049774 64.9776 0.0261899 67.0246 0.000950614C81.8478 -0.0721803 93.5692 4.06856 104.435 14.3623C104.435 15.0223 104.435 15.6823 104.435 16.3623C105.095 16.3623 105.755 16.3623 106.435 16.3623C107.567 18.3468 108.663 20.3513 109.747 22.3623C110.362 23.476 110.977 24.5898 111.611 25.7373C118.125 40.541 116.829 57.5329 116.728 73.2998C116.722 75.8777 116.718 78.4555 116.715 81.0334C116.705 87.082 116.681 93.1304 116.651 99.179C116.617 106.076 116.601 112.974 116.586 119.871C116.555 134.035 116.502 148.199 116.435 162.362C114.863 162.531 113.291 162.697 111.718 162.861C110.405 163 110.405 163 109.065 163.141C105.15 163.47 101.286 163.381 97.3645 163.241C96.5574 163.218 95.7503 163.194 94.9187 163.17C92.3822 163.094 89.846 163.01 87.3098 162.925C85.5728 162.871 83.8359 162.819 82.0989 162.767C77.8773 162.639 73.656 162.503 69.4348 162.362C69.2589 154.883 69.0938 147.404 68.9348 139.925C68.9105 138.793 68.8861 137.66 68.861 136.494C68.5873 123.479 68.3931 110.47 68.4387 97.4521C68.444 95.7892 68.444 95.7892 68.4494 94.0926C68.4699 88.7846 68.5056 83.477 68.5598 78.1692C69.6879 62.6233 69.6879 62.6233 64.2473 49.1123C60.3688 48.078 58.2688 48.0614 54.4348 49.3623C48.5448 55.2604 48.6628 62.5005 48.6223 70.3623C48.5972 71.5186 48.572 72.6749 48.5461 73.8662C48.4876 76.6986 48.4511 79.5294 48.4348 82.3623C49.2778 82.3507 50.1209 82.3391 50.9895 82.3271C52.0852 82.3181 53.1809 82.3091 54.3098 82.2998C55.9456 82.2824 55.9456 82.2824 57.6145 82.2646C60.4348 82.3623 60.4348 82.3623 62.4348 83.3623C62.4595 88.7008 62.4777 94.0393 62.4897 99.3779C62.4948 101.194 62.5016 103.009 62.5102 104.825C62.5224 107.437 62.528 110.048 62.5325 112.659C62.5376 113.47 62.5428 114.28 62.5481 115.115C62.5485 118.772 62.3279 121.79 61.4348 125.362C55.4948 125.857 55.4948 125.857 49.4348 126.362C49.1048 138.242 48.7748 150.122 48.4348 162.362C45.5617 163.32 43.9303 163.459 40.9634 163.384C40.0627 163.364 39.1619 163.344 38.2339 163.323C37.2651 163.296 36.2963 163.269 35.2981 163.241C34.3035 163.218 33.3089 163.194 32.2842 163.17C29.1051 163.093 25.9262 163.009 22.7473 162.925C20.593 162.872 18.4387 162.819 16.2844 162.767C11.0011 162.637 5.71788 162.502 0.4348 162.362C0.340878 148.166 0.270856 133.97 0.227551 119.773C0.206758 113.18 0.178591 106.587 0.133042 99.9936C0.0892895 93.6199 0.0656009 87.2464 0.0552909 80.8725C0.047952 78.4519 0.0336224 76.0313 0.0118796 73.6107C-0.176051 51.8036 1.71725 32.5709 16.4348 15.3623C29.2023 2.89125 43.6125 -0.00921783 60.8845 0.0466049Z" fill="white"/>
<path d="M308.586 3.23288C309.639 3.22973 310.691 3.22658 311.776 3.22333C312.916 3.22535 314.057 3.22738 315.232 3.22946C317.003 3.22803 317.003 3.22803 318.81 3.22656C321.319 3.22588 323.827 3.22773 326.336 3.2319C330.128 3.23719 333.92 3.23199 337.712 3.22556C385.249 3.20887 385.249 3.20887 399.435 16.3623C407.99 25.4268 409.397 35.2162 409.435 47.3623C408.895 58.527 403.472 67.8124 395.435 75.3623C395.435 76.3523 395.435 77.3423 395.435 78.3623C397.664 80.1607 397.664 80.1607 400.497 81.9248C408.987 87.8903 414.065 95.2642 416.435 105.362C416.831 109.02 416.856 112.623 416.81 116.3C416.821 117.225 416.833 118.15 416.845 119.103C416.794 131.301 412.82 141.967 404.107 150.694C392.681 160.378 379.966 162.727 365.372 162.487C364.316 162.478 363.26 162.469 362.171 162.46C359.592 162.437 357.014 162.404 354.435 162.362C354.41 156.684 354.392 151.006 354.38 145.327C354.375 143.394 354.368 141.461 354.359 139.528C354.347 136.755 354.342 133.983 354.337 131.21C354.332 130.34 354.327 129.47 354.322 128.574C354.321 126.503 354.373 124.432 354.435 122.362C356.484 120.313 360.48 120.677 363.31 120.362C368.949 119.758 368.949 119.758 374.435 118.362C374.862 114.685 374.679 112.784 372.81 109.55C368.957 106.024 363.34 106.646 358.419 106.503C355.435 106.362 355.435 106.362 354.435 105.362C354.346 102.332 354.32 99.3256 354.337 96.2959C354.339 95.3872 354.34 94.4786 354.341 93.5425C354.347 90.6282 354.36 87.714 354.372 84.7998C354.377 82.8291 354.382 80.8584 354.386 78.8877C354.397 74.0458 354.414 69.2041 354.435 64.3623C355.133 64.1199 355.832 63.8776 356.552 63.6279C357.462 63.2927 358.372 62.9576 359.31 62.6123C360.215 62.2874 361.12 61.9626 362.052 61.6279C364.799 60.1689 365.485 59.2852 366.435 56.3623C366.359 53.2423 366.359 53.2423 365.435 50.3623C361.088 47.1075 361.088 47.1075 348.435 47.3623C348.105 85.3123 347.775 123.262 347.435 162.362C331.925 162.362 316.415 162.362 300.435 162.362C299.824 156.864 299.311 152.046 299.353 146.623C299.36 145.357 299.367 144.091 299.374 142.787C299.387 141.412 299.4 140.037 299.413 138.663C299.423 137.194 299.433 135.724 299.442 134.255C299.468 130.291 299.501 126.326 299.535 122.362C299.57 118.21 299.598 114.058 299.627 109.906C299.683 102.055 299.745 94.2035 299.808 86.3521C299.88 77.4089 299.946 68.4657 300.011 59.5225C300.146 41.1357 300.288 22.749 300.435 4.36227C303.443 3.35945 305.443 3.23558 308.586 3.23288Z" fill="white"/>
<path d="M793.361 55.6084C805.255 66.0574 813.698 78.3028 815.435 94.3623C815.561 97.156 815.575 99.9412 815.56 102.737C815.564 103.46 815.568 104.184 815.572 104.929C815.562 110.236 815.562 110.236 814.435 111.362C812.025 111.536 809.641 111.647 807.228 111.714C806.483 111.737 805.738 111.761 804.97 111.785C802.521 111.859 800.072 111.924 797.622 111.987C796.794 112.01 795.966 112.033 795.112 112.056C779.846 112.464 764.687 112.19 749.435 111.362C746.411 105.668 746.75 99.9653 748.372 93.7998C749.435 91.3623 749.435 91.3623 750.435 90.3623C751.924 90.2756 753.416 90.2552 754.907 90.2646C755.807 90.2678 756.706 90.2711 757.632 90.2744C759.05 90.287 759.05 90.287 760.497 90.2998C761.921 90.3065 761.921 90.3065 763.374 90.3135C765.728 90.3253 768.081 90.3418 770.435 90.3623C768.239 84.2363 768.239 84.2363 763.435 80.3623C757.901 78.864 753.268 78.9149 748.228 81.792C742.958 86.4073 740.884 93.7029 740.232 100.468C740.044 108.784 741.937 116.923 747.435 123.362C751.825 126.527 755.171 126.654 760.329 125.894C763.031 125.212 765.071 123.807 767.435 122.362C771.188 122.432 772.35 123.278 775.048 125.952C775.961 127.058 776.86 128.174 777.747 129.3C778.222 129.882 778.697 130.465 779.187 131.065C780.614 132.822 782.025 134.591 783.435 136.362C784.234 137.346 785.033 138.329 785.857 139.343C793.465 148.742 793.465 148.742 793.337 151.362C790.935 156.686 782.733 159.367 777.622 161.612C762.738 167.127 745.39 166.856 730.689 160.944C715.498 153.559 704.09 142.067 697.439 126.46C691.947 109.515 693.638 90.6136 701.56 74.8623C710.406 59.0988 723.999 49.4504 741.318 44.5459C759.493 40.7572 778.516 44.2121 793.361 55.6084Z" fill="white"/>
<path d="M524.056 55.4209C535.237 64.546 544.34 76.7019 546.435 91.3623C546.573 94.6135 546.574 97.8586 546.56 101.112C546.564 101.988 546.568 102.863 546.572 103.765C546.57 104.596 546.569 105.427 546.568 106.284C546.566 107.043 546.565 107.802 546.564 108.584C546.435 110.362 546.435 110.362 545.435 111.362C543.421 111.472 541.403 111.511 539.386 111.523C538.091 111.533 536.797 111.543 535.463 111.553C534.038 111.557 532.613 111.562 531.189 111.565C529.738 111.571 528.287 111.577 526.835 111.583C523.79 111.593 520.744 111.599 517.698 111.603C513.789 111.608 509.881 111.632 505.972 111.66C502.974 111.679 499.976 111.684 496.977 111.686C495.536 111.689 494.095 111.697 492.653 111.71C490.64 111.727 488.626 111.723 486.613 111.719C485.466 111.722 484.318 111.726 483.136 111.73C482.245 111.608 481.353 111.487 480.435 111.362C478.079 107.828 478.137 106.176 478.122 101.987C478.106 100.866 478.089 99.7443 478.072 98.5888C478.496 94.8147 478.716 93.0658 481.435 90.3623C484.847 89.7403 488.169 89.894 491.622 90.0498C493.033 90.0836 493.033 90.0836 494.472 90.1181C496.794 90.1771 499.114 90.2593 501.435 90.3623C500.997 89.2575 500.558 88.1528 500.107 87.0146C499.86 86.3932 499.614 85.7718 499.36 85.1315C497.731 82.0165 495.533 80.8516 492.435 79.3623C487.206 78.7086 483.839 79.4898 479.435 82.3623C473.876 87.7919 471.34 94.0749 471.122 101.862C471.46 109.941 473.124 117.063 478.435 123.362C482.057 126.079 484.66 126.562 489.06 126.237C492.68 125.698 494.596 124.694 497.435 122.362C499.689 121.886 499.689 121.886 502.435 122.362C504.575 124.381 506.307 126.268 508.122 128.55C508.637 129.177 509.151 129.804 509.682 130.45C510.748 131.757 511.808 133.071 512.86 134.39C514.379 136.292 515.923 138.17 517.474 140.046C518.4 141.191 519.325 142.339 520.247 143.487C520.686 144.019 521.124 144.55 521.576 145.097C524.49 148.824 524.49 148.824 524.229 151.374C522.611 155.425 518.205 157.543 514.396 159.306C512.281 160.141 510.154 160.89 507.997 161.612C506.929 161.995 506.929 161.995 505.839 162.386C490.763 167.589 474.245 165.991 459.634 159.964C444.085 152.18 433.346 139.206 427.595 122.995C427.02 120.772 426.689 118.645 426.435 116.362C426.303 115.232 426.172 114.101 426.036 112.936C424.512 96.3597 427.627 81.0227 437.435 67.3623C439.635 64.8652 441.991 62.6164 444.435 60.3623C445.194 59.5566 445.953 58.7509 446.736 57.9209C454.335 50.7173 464.258 46.3597 474.435 44.3623C475.404 44.1354 476.374 43.9085 477.372 43.6748C494.384 41.9388 510.189 45.1156 524.056 55.4209Z" fill="white"/>
<path d="M218.501 3.23288C219.758 3.22815 219.758 3.22815 221.039 3.22333C221.945 3.22535 222.85 3.22738 223.782 3.22946C224.709 3.2285 225.637 3.22755 226.592 3.22656C228.553 3.22588 230.514 3.22773 232.475 3.2319C235.488 3.23726 238.502 3.23195 241.515 3.22556C243.417 3.22622 245.318 3.2275 247.22 3.22946C248.127 3.22744 249.034 3.22541 249.969 3.22333C256.32 3.24732 256.32 3.24732 257.435 4.36227C257.557 5.71211 257.612 7.06802 257.64 8.42307C257.67 9.71429 257.67 9.71429 257.701 11.0316C257.717 11.967 257.734 12.9024 257.751 13.8662C257.772 14.8192 257.793 15.7722 257.814 16.7541C257.88 19.8109 257.939 22.8678 257.997 25.9248C258.04 27.9918 258.084 30.0589 258.128 32.1259C258.235 37.2046 258.337 42.2834 258.435 47.3623C264.375 47.6923 270.315 48.0223 276.435 48.3623C276.435 63.5423 276.435 78.7223 276.435 94.3623C268.02 94.8573 268.02 94.8573 259.435 95.3623C258.027 96.5473 258.027 96.5473 258.247 99.9248C258.287 104.321 259.23 108.146 260.435 112.362C261.095 112.362 261.755 112.362 262.435 112.362C262.435 113.022 262.435 113.682 262.435 114.362C266.387 116.147 270.316 117.05 274.544 117.897C276.435 118.362 276.435 118.362 277.435 119.362C277.536 122.345 277.574 125.305 277.568 128.288C277.569 129.187 277.57 130.086 277.57 131.013C277.571 132.92 277.569 134.828 277.565 136.735C277.56 139.652 277.565 142.569 277.572 145.485C277.571 147.336 277.57 149.187 277.568 151.038C277.57 151.911 277.572 152.784 277.574 153.684C277.569 154.91 277.569 154.91 277.564 156.16C277.563 156.877 277.563 157.593 277.562 158.331C277.429 160.447 277.011 162.326 276.435 164.362C260.292 165.514 246.097 161.686 233.435 151.362C232.552 150.644 231.669 149.926 230.759 149.186C225.75 144.664 222.138 139.781 218.997 133.862C218.679 133.289 218.361 132.716 218.033 132.126C210.828 117.374 212.025 99.0032 212.142 83.0732C212.147 80.7897 212.152 78.5061 212.155 76.2225C212.166 70.2747 212.195 64.3271 212.229 58.3794C212.26 52.2852 212.273 46.1909 212.288 40.0966C212.32 28.1851 212.371 16.2737 212.435 4.36227C214.713 3.22322 215.972 3.2356 218.501 3.23288Z" fill="white"/>
<path d="M567.232 3.0015C567.956 3.00816 568.68 3.01482 569.426 3.02168C570.246 3.02191 571.067 3.02214 571.912 3.02237C573.242 3.0456 573.242 3.0456 574.599 3.06929C575.506 3.07354 576.413 3.07778 577.348 3.08215C580.252 3.09898 583.156 3.13664 586.06 3.17476C588.026 3.1898 589.992 3.20349 591.958 3.21577C596.784 3.24889 601.609 3.3007 606.435 3.36226C608.545 6.82053 608.684 9.53415 608.682 13.5489C608.686 14.8192 608.69 16.0894 608.695 17.3982C608.689 18.8035 608.684 20.2089 608.678 21.6142C608.679 23.096 608.681 24.5777 608.683 26.0595C608.688 30.0822 608.681 34.1047 608.671 38.1274C608.662 42.3363 608.663 46.5451 608.664 50.754C608.663 57.8222 608.654 64.8903 608.641 71.9585C608.625 80.1314 608.62 88.3043 608.62 96.4772C608.621 104.338 608.616 112.198 608.608 120.059C608.604 123.405 608.602 126.751 608.602 130.097C608.601 134.037 608.595 137.977 608.584 141.916C608.582 143.363 608.58 144.809 608.581 146.256C608.581 148.229 608.575 150.202 608.569 152.176C608.567 153.28 608.565 154.385 608.563 155.523C608.357 160.088 608.357 160.088 607.435 162.362C603.487 163.678 599.724 163.485 595.611 163.46C594.749 163.459 593.888 163.457 593 163.456C590.249 163.45 587.498 163.437 584.747 163.425C582.882 163.42 581.017 163.415 579.152 163.411C574.579 163.4 570.007 163.383 565.435 163.362C563.597 159.434 563.184 156.332 563.181 152.011C563.175 150.729 563.17 149.448 563.164 148.127C563.168 146.715 563.172 145.302 563.176 143.889C563.173 142.396 563.17 140.902 563.165 139.409C563.156 135.36 563.16 131.31 563.166 127.261C563.171 123.024 563.167 118.786 563.163 114.549C563.16 107.435 563.165 100.322 563.174 93.2085C563.185 84.9804 563.181 76.7524 563.17 68.5243C563.161 61.4609 563.16 54.3976 563.165 47.3342C563.168 43.1149 563.169 38.8957 563.162 34.6764C563.156 30.7119 563.16 26.7476 563.172 22.7831C563.175 21.3266 563.174 19.8701 563.169 18.4136C563.164 16.4291 563.172 14.4445 563.181 12.4599C563.182 11.3482 563.182 10.2366 563.183 9.09128C563.465 6.03488 563.887 3.67294 567.232 3.0015Z" fill="white"/>
<path d="M643.31 3.22947C644.63 3.22803 644.63 3.22803 645.977 3.22657C647.84 3.22589 649.703 3.22774 651.566 3.23191C654.423 3.23726 657.28 3.23196 660.138 3.22556C661.945 3.22622 663.753 3.2275 665.56 3.22947C666.418 3.22744 667.277 3.22542 668.161 3.22333C674.205 3.24732 674.205 3.24732 676.435 4.36228C676.435 56.5023 676.435 108.642 676.435 162.362C661.915 162.362 647.395 162.362 632.435 162.362C632.435 110.222 632.435 58.0823 632.435 4.36228C635.802 2.67892 639.608 3.22074 643.31 3.22947Z" fill="white"/>
<path d="M200.435 44.3623C201.158 44.4783 201.881 44.5943 202.626 44.7138C203.223 44.9278 203.82 45.1418 204.435 45.3623C205.764 49.3496 205.577 53.1783 205.568 57.3349C205.569 58.2138 205.57 59.0926 205.57 59.9981C205.571 61.8549 205.569 63.7118 205.565 65.5686C205.56 68.4172 205.565 71.2656 205.572 74.1142C205.571 75.917 205.57 77.7197 205.568 79.5224C205.57 80.3776 205.572 81.2329 205.574 82.114C205.55 88.1323 205.55 88.1323 204.435 90.3623C203.855 90.3275 203.275 90.2927 202.677 90.2568C197.535 90.0786 193.686 90.123 189.435 93.3623C185.809 100.565 185.962 107.541 185.923 115.487C185.906 116.843 185.888 118.2 185.869 119.556C185.821 123.1 185.791 126.644 185.765 130.189C185.735 133.816 185.689 137.443 185.644 141.069C185.557 148.167 185.496 155.264 185.435 162.362C170.915 162.362 156.395 162.362 141.435 162.362C141.314 144.705 141.314 144.705 141.288 137.097C141.27 131.933 141.25 126.77 141.208 121.607C141.176 117.438 141.158 113.269 141.15 109.1C141.145 107.52 141.134 105.941 141.118 104.362C140.994 91.9025 141.461 79.366 147.872 68.2998C148.448 67.2775 149.025 66.2553 149.618 65.2021C151.406 62.4072 153.224 59.8368 155.435 57.3623C156.095 57.3623 156.755 57.3623 157.435 57.3623C157.435 56.7023 157.435 56.0423 157.435 55.3623C168.961 45.4446 185.632 41.7241 200.435 44.3623Z" fill="white"/>
</svg>
