<svg width="937" height="548" viewBox="0 0 937 548" fill="none" xmlns="http://www.w3.org/2000/svg">
<path d="M0 476.773C309.21 476.773 618.42 476.773 937 476.773C937 500.203 937 523.633 937 547.773C627.79 547.773 318.58 547.773 0 547.773C0 524.343 0 500.913 0 476.773ZM367 493.773C365.161 497.969 364.075 502.25 363.055 506.699C362.88 507.446 362.705 508.194 362.525 508.964C361.971 511.337 361.423 513.711 360.875 516.085C360.499 517.701 360.123 519.316 359.746 520.931C358.827 524.877 357.912 528.825 357 532.773C358.485 532.278 358.485 532.278 360 531.773C361.064 529.098 361.064 529.098 361.789 525.804C362.091 524.594 362.392 523.383 362.703 522.136C363.007 520.861 363.312 519.586 363.625 518.273C364.239 515.762 364.856 513.251 365.477 510.742C365.88 509.062 365.88 509.062 366.292 507.349C367 504.773 367 504.773 368 503.773C371.63 513.343 375.26 522.913 379 532.773C379.66 532.773 380.32 532.773 381 532.773C381.323 531.9 381.645 531.026 381.978 530.127C383.176 526.895 384.381 523.665 385.59 520.438C386.112 519.039 386.632 517.639 387.149 516.238C387.892 514.228 388.645 512.221 389.398 510.214C389.849 509.005 390.299 507.795 390.763 506.548C392 503.773 392 503.773 394 502.773C394.116 504.041 394.232 505.31 394.352 506.617C394.947 511.947 396.086 517.072 397.375 522.273C397.584 523.178 397.793 524.083 398.008 525.015C398.219 525.874 398.431 526.732 398.648 527.617C398.836 528.392 399.023 529.167 399.216 529.966C399.475 530.562 399.734 531.159 400 531.773C400.99 532.103 401.98 532.433 403 532.773C400.151 519.736 397.125 506.747 394 493.773C391.024 495.261 390.82 497.344 389.652 500.417C389.212 501.569 388.772 502.721 388.318 503.908C387.863 505.121 387.407 506.335 386.938 507.585C386.478 508.787 386.018 509.989 385.545 511.228C383.226 517.068 383.226 517.068 381.487 523.088C381.246 523.922 381.246 523.922 381 524.773C380.34 525.103 379.68 525.433 379 525.773C378.916 524.989 378.832 524.205 378.746 523.398C377.757 518.593 375.94 514.292 374.062 509.773C369.667 499.078 369.667 499.078 368 493.773C367.67 493.773 367.34 493.773 367 493.773ZM31.6875 501.21C30.9508 502.075 30.9508 502.075 30.1992 502.956C27.1282 507.608 27.5608 513.411 28 518.773C29.7159 524.829 32.8891 528.311 38 531.773C41.4299 532.916 44.1986 532.977 47.8125 533.023C49.6165 533.061 49.6165 533.061 51.457 533.101C55.2899 532.746 57.6972 531.695 61 529.773C60.67 528.783 60.34 527.793 60 526.773C59.5153 527.062 59.0306 527.35 58.5312 527.648C53.611 530.373 49.6245 531.841 44 530.773C39.6378 529.356 36.6886 527.514 33.5625 524.148C30.8589 518.308 30.299 513.149 32.125 506.96C35.0808 501.935 38.2396 498.281 44 496.773C50.4218 496.167 55.3571 497.951 61 500.773C60.8869 498.814 60.8869 498.814 60 496.773C56.0253 494.683 52.5075 494.475 48.0625 494.46C46.8779 494.444 45.6932 494.427 44.4727 494.41C39.0334 494.979 35.1651 497.002 31.6875 501.21ZM140.688 501.21C139.951 502.075 139.951 502.075 139.199 502.956C136.128 507.608 136.561 513.411 137 518.773C138.716 524.829 141.889 528.311 147 531.773C153.373 533.897 161.388 533.955 167.562 531.148C172.09 528.464 174.356 524.706 176 519.773C176.661 512.46 176.784 505.692 172 499.773C167.55 495.2 163.138 494.431 156.875 494.273C150.151 494.333 145.059 495.92 140.688 501.21ZM258 497.773C256.431 500.912 256.648 503.311 257 506.773C260.291 511.38 264.755 513.311 269.793 515.562C272 516.773 272 516.773 274 519.773C274.228 523.351 273.929 526.333 273 529.773C271.586 529.996 270.168 530.201 268.75 530.398C267.961 530.514 267.172 530.63 266.359 530.749C263.63 530.776 262.282 530.235 260 528.773C258.988 527.449 257.986 526.117 257 524.773C256.34 524.773 255.68 524.773 255 524.773C256.281 528.722 257.444 530.612 261 532.773C265.622 533.539 269.787 533.317 274.062 531.398C276.25 529.563 276.9 528.606 277.238 525.785C277.356 522.082 277.332 519.452 275.688 516.085C272.246 513.124 268.517 511.214 264.461 509.203C262 507.773 262 507.773 260 504.773C260.324 501.45 260.608 500.165 263 497.773C264.875 497.507 264.875 497.507 267 497.523C267.701 497.518 268.402 497.513 269.125 497.507C271 497.773 271 497.773 273 499.773C273.99 499.773 274.98 499.773 276 499.773C275.209 497.773 275.209 497.773 274 495.773C268.078 493.799 262.964 493.862 258 497.773ZM484 494.773C484 507.313 484 519.853 484 532.773C489.94 532.773 495.88 532.773 502 532.773C501.67 532.113 501.34 531.453 501 530.773C496.38 530.773 491.76 530.773 487 530.773C486.67 524.833 486.34 518.893 486 512.773C491.61 512.773 497.22 512.773 503 512.773C502.67 512.113 502.34 511.453 502 510.773C496.72 510.773 491.44 510.773 486 510.773C486 506.153 486 501.533 486 496.773C491.61 496.773 497.22 496.773 503 496.773C502.67 496.113 502.34 495.453 502 494.773C496.06 494.773 490.12 494.773 484 494.773ZM582 494.773C582 495.433 582 496.093 582 496.773C584.64 496.773 587.28 496.773 590 496.773C590 508.653 590 520.533 590 532.773C590.99 532.773 591.98 532.773 593 532.773C593 521.223 593 509.673 593 497.773C595.64 497.443 598.28 497.113 601 496.773C601 496.113 601 495.453 601 494.773C594.73 494.773 588.46 494.773 582 494.773ZM680 494.773C680 507.313 680 519.853 680 532.773C680.66 532.773 681.32 532.773 682 532.773C682 520.233 682 507.693 682 494.773C681.34 494.773 680.68 494.773 680 494.773ZM768 498.773C762.913 505.034 762.334 510.926 763 518.773C764.631 524.008 766.788 527.263 771 530.773C776.774 533.625 782.701 533.294 789 532.773C792.663 531.703 792.663 531.703 795 529.773C795.33 528.783 795.66 527.793 796 526.773C793.63 527.695 791.329 528.591 789.102 529.824C784.46 531.92 779.444 531.273 774.75 529.648C770.57 526.798 767.631 523.667 766 518.773C765.465 512.798 765.487 507.86 769 502.773C773.096 498.892 776.693 496.99 782.312 496.46C787.338 496.886 791.517 498.531 796 500.773C796 499.783 796 498.793 796 497.773C787.646 492.986 775.793 492.373 768 498.773ZM876 497.773C874.431 500.912 874.648 503.311 875 506.773C878.291 511.38 882.755 513.311 887.793 515.562C890 516.773 890 516.773 892 519.773C892.199 523.478 892.177 526.243 891 529.773C889.586 529.996 888.168 530.201 886.75 530.398C885.961 530.514 885.172 530.63 884.359 530.749C881.634 530.776 880.271 530.247 878 528.773C876.75 526.648 876.75 526.648 876 524.773C875.01 524.773 874.02 524.773 873 524.773C874.281 528.722 875.444 530.612 879 532.773C883.622 533.539 887.787 533.317 892.062 531.398C894.343 529.485 894.899 528.496 895.309 525.566C895.635 519.787 895.635 519.787 892.625 515.023C890.619 513.656 888.528 512.508 886.41 511.32C885.512 510.809 884.613 510.299 883.688 509.773C882.825 509.319 881.963 508.865 881.074 508.398C879 506.773 879 506.773 878.148 504.23C878 501.773 878 501.773 878.938 499.46C882.232 496.764 884.822 497.375 889 497.773C889.66 498.433 890.32 499.093 891 499.773C891.99 499.773 892.98 499.773 894 499.773C893.316 496.781 893.316 496.781 891.438 495.585C885.69 493.669 880.767 494.017 876 497.773Z" fill="white"/>
<path d="M505.615 48.5282C514.752 57.1812 522.665 66.5583 530 76.7728C534.326 73.6915 538.378 70.4733 542.25 66.8353C581.614 31.0772 633.264 6.7688 686.812 6.39782C688.087 6.3838 689.362 6.36978 690.676 6.35534C702.532 6.41505 714.035 8.0734 725 12.7728C724.67 13.4328 724.34 14.0928 724 14.7728C723.033 14.5679 722.066 14.3629 721.07 14.1517C695.957 8.91028 670.741 9.33077 646.375 17.9481C643.574 18.9207 640.755 19.832 637.934 20.7455C604.694 31.6604 576.77 49.1982 550.673 72.3099C548.947 73.8195 547.191 75.2891 545.43 76.7572C544.307 77.7199 543.184 78.6834 542.062 79.6478C540.564 80.9124 540.564 80.9124 539.035 82.2025C536.724 84.5922 536.724 84.5922 536.93 87.5697C538.29 91.6418 540.114 95.3297 542.062 99.1478C567.951 152.069 569.396 216.213 550.744 271.615C535.852 314.796 506.432 355.131 470 382.773C469.037 383.541 468.074 384.309 467.082 385.101C431.415 413.455 390.441 430.706 346 439.773C344.768 440.026 344.768 440.026 343.51 440.284C296.904 449.589 246.977 445.109 200.523 436.617C189.14 434.72 178.547 436.412 167.274 438.223C162.8 438.94 158.32 439.625 153.84 440.308C152.536 440.507 152.536 440.507 151.206 440.71C128.971 444.064 106.526 444.989 84.0625 444.96C83.1777 444.96 82.2929 444.959 81.3813 444.958C17.5245 444.841 17.5245 444.841 2.3125 431.398C1 428.773 1 428.773 0.75 425.398C2.60483 420.019 5.14289 417.685 10 414.773C51.5864 395.056 99.1099 404.996 142.25 413.148C144.079 413.493 144.079 413.493 145.945 413.846C160.445 416.6 174.883 419.529 189.248 422.926C196.105 424.509 202.263 425.834 209.18 423.812C209.93 423.593 210.681 423.375 211.454 423.149C212.253 422.901 213.052 422.653 213.875 422.398C214.735 422.133 215.595 421.868 216.481 421.596C259.497 407.95 296.894 385.334 325 349.773C326.027 348.521 327.057 347.271 328.09 346.023C334.636 338.094 340.821 330.023 346.709 321.597C348.028 319.733 349.376 317.893 350.734 316.058C361.185 301.891 370.816 287.174 380.53 272.499C383.092 268.631 385.669 264.774 388.251 260.919C396.061 249.252 403.708 237.493 411.097 225.555C424.589 203.787 438.63 182.27 454 161.773C454.675 160.872 454.675 160.872 455.364 159.953C466.513 145.156 478.382 130.831 490.859 117.132C492.218 115.635 493.563 114.126 494.891 112.601C503.117 103.209 512.132 94.5525 521 85.7728C503.083 52.1605 471.081 28.1387 434.918 17.1166C369.576 -1.4408 299.612 11.1621 240.875 43.5853C218.553 56.7618 198.289 72.4151 179.156 89.8392C177.329 91.4781 175.473 93.045 173.562 94.5853C171.291 96.5248 169.761 98.3958 168 100.773C167.34 100.773 166.68 100.773 166 100.773C165.677 101.591 165.677 101.591 165.348 102.425C163.539 105.577 161.043 107.851 158.438 110.335C152.829 115.819 147.843 121.597 143 127.773C142.13 128.853 141.259 129.933 140.387 131.011C133.46 139.625 127.066 148.534 121 157.773C120.238 158.93 120.238 158.93 119.461 160.111C93.5983 199.757 69.4386 252.46 79.1274 301.197C81.9148 312.826 87.1342 322.795 95 331.773C95.5711 332.45 96.1421 333.126 96.7305 333.824C108.624 346.884 127.705 353.871 144.994 354.962C183.215 356.542 215.728 343.61 246 320.773C246.622 320.307 247.245 319.842 247.886 319.362C256.183 313.126 263.875 306.387 271.412 299.259C273.003 297.77 274.614 296.307 276.234 294.851C281.207 290.38 286.014 285.903 290.316 280.765C292.185 278.554 294.152 276.454 296.125 274.335C306.257 263.079 315.22 250.758 323 237.773C323.381 237.14 323.763 236.508 324.156 235.856C339.429 210.297 350.637 177.544 343.375 147.648C339.66 135.63 333.418 126.448 322.25 120.46C308.624 114.089 291.874 113.954 277.719 118.925C271.228 121.884 266.914 125.402 262.523 131.015C262.021 131.595 261.518 132.175 261 132.773C260.34 132.773 259.68 132.773 259 132.773C261.604 123.442 268.059 118.742 276 113.773C289.308 107.255 303.597 105.238 318.062 109.398C333.63 115.073 343.461 125.04 350.406 139.843C360.319 162.814 353.542 192.064 344.887 214.402C335.559 237.323 321.874 256.94 306 275.773C305.354 276.54 304.708 277.307 304.043 278.097C302.389 280.016 300.704 281.898 299 283.773C298.558 284.264 298.116 284.755 297.661 285.261C292.048 291.487 286.506 297.461 280 302.773C278.325 304.431 276.659 306.099 275 307.773C261.613 320.921 246.371 332.584 230 341.773C229.371 342.13 228.742 342.488 228.094 342.856C196.731 360.566 160.916 369.215 125.324 360.066C108.351 355.251 94.4497 346.113 82 333.773C81.1093 332.895 80.2185 332.017 79.3008 331.113C72.7566 324.308 68.2796 317.102 64 308.773C63.2749 307.4 63.2749 307.4 62.5352 305.999C46.7555 274.056 50.8607 231.17 61.7539 198.41C65.6617 187.064 70.269 176.308 76 165.773C76.3624 165.095 76.7248 164.417 77.0981 163.719C81.8174 154.913 86.8817 146.695 93 138.773C93.8032 137.703 94.6053 136.633 95.4062 135.562C100.613 128.641 106.115 122.134 112 115.773C112.807 114.863 113.614 113.953 114.445 113.015C125.271 100.897 137.169 89.7465 150 79.7728C150.63 79.2807 151.26 78.7886 151.91 78.2816C180.608 55.917 211.185 37.3759 245 23.7728C245.729 23.4707 246.459 23.1686 247.21 22.8573C273.178 12.1571 301.243 6.34597 329 2.77282C329.983 2.64295 330.967 2.51307 331.98 2.37926C393.928 -5.42848 458.619 4.98267 505.615 48.5282ZM527 94.7728C494.276 130.166 470.379 174.746 450.219 218.195C432.859 255.598 414.26 292.742 388.357 325.078C387.137 326.601 385.935 328.139 384.734 329.679C380.079 335.617 375.169 341.277 370 346.773C369.213 347.611 369.213 347.611 368.411 348.465C341.895 376.464 307.457 395.376 272 409.773C270.993 410.186 269.986 410.6 268.948 411.026C251.611 418.095 233.986 423.645 216 428.773C219.279 430.959 221.298 431.347 225.152 431.992C226.394 432.201 227.635 432.41 228.914 432.625C230.255 432.842 231.596 433.058 232.938 433.273C233.616 433.383 234.295 433.494 234.994 433.608C300.15 444.189 366.983 439.251 422.196 400.078C432.441 392.668 441.892 384.533 451 375.773C451.491 375.303 451.983 374.834 452.489 374.35C459.22 367.891 465.2 361.068 471 353.773C472.058 352.516 472.058 352.516 473.137 351.234C518.213 297.661 549.217 224.589 543.535 153.734C541.584 133.28 535.745 113.735 528 94.7728C527.67 94.7728 527.34 94.7728 527 94.7728ZM10 423.773C9.03123 425.805 9.03123 425.805 9 427.773C24.3095 440.831 58.3512 437.379 77 437.773C78.081 437.796 79.1621 437.82 80.2759 437.844C106.099 438.315 132.07 437.029 157.75 434.273C158.874 434.154 159.998 434.036 161.156 433.914C162.172 433.795 163.188 433.677 164.234 433.554C165.113 433.452 165.992 433.349 166.897 433.244C169.206 432.924 169.206 432.924 171 430.773C147.627 427.526 124.262 424.511 100.75 422.46C99.3731 422.339 99.3731 422.339 97.9684 422.216C80.9504 420.732 63.9659 419.574 46.875 419.585C44.9385 419.587 44.9385 419.587 42.9629 419.588C26.1625 419.634 26.1625 419.634 10 423.773Z" fill="white"/>
<path d="M918.02 260.128C922.966 264.013 927.22 269.337 928 275.773C928.85 288.1 923.963 296.644 916.223 305.898C894.222 329.713 851.702 338.833 821.215 344.445C819.755 344.724 818.295 345.004 816.835 345.284C814.053 345.818 811.269 346.288 808.469 346.724C801.36 348.01 801.36 348.01 795.688 352.182C793.877 354.974 792.405 357.758 791 360.773C790.252 362.125 789.5 363.474 788.742 364.82C788.111 366.049 787.488 367.284 786.875 368.523C786.543 369.19 786.211 369.858 785.869 370.546C779.12 384.496 773.795 400.153 778.965 415.445C781.342 420.791 784.521 424.458 790 426.648C807.132 431.917 823.934 426.979 839.402 419.023C851.722 412.382 862.192 403.784 872.344 394.218C875 391.773 875 391.773 877.641 389.683C879.8 387.935 881.482 386.215 883.25 384.085C885.833 381.055 888.52 378.235 891.375 375.46C895.468 371.416 899.101 367.129 902.695 362.64C905.021 359.746 907.411 356.916 909.812 354.085C914.367 348.648 918.625 343.023 922.802 337.292C925.605 333.481 928.369 329.847 932 326.773C933.32 326.773 934.64 326.773 936 326.773C936.33 327.433 936.66 328.093 937 328.773C931.953 337.069 925.719 344.418 919.553 351.888C917.5 354.38 915.47 356.89 913.438 359.398C898.758 377.295 898.758 377.295 891.504 384.269C889.912 385.861 888.494 387.536 887.062 389.273C884.372 392.466 881.425 395.143 878.242 397.839C875.738 399.998 873.347 402.259 870.938 404.523C856.414 417.706 839.746 428.686 821 434.773C820.272 435.018 819.543 435.263 818.793 435.515C805.731 439.161 791.204 437.381 779.223 431.382C776.72 429.952 774.359 428.428 772 426.773C771.388 426.356 770.775 425.94 770.145 425.511C761.109 418.626 754.949 407.541 752 396.773C751.777 396.034 751.554 395.296 751.324 394.535C749.121 385.858 749.836 376.653 750 367.773C745.818 372.388 741.732 377.057 737.812 381.898C695.53 433.744 695.53 433.744 670.945 437.202C661.632 437.605 654.416 435.057 647.25 429.148C638.31 420.556 634.314 410.325 633.906 397.925C634.356 390.293 636.723 383.027 639 375.773C638.573 376.309 638.147 376.845 637.707 377.398C635.927 379.629 634.144 381.856 632.357 384.082C631.406 385.267 630.456 386.453 629.506 387.639C623.269 395.426 616.984 403.086 610.188 410.394C608.259 412.491 606.44 414.641 604.625 416.835C596.847 425.729 585.479 435.962 573.215 437.011C563.164 437.239 555.097 435.546 547.594 428.538C537.72 417.6 535.33 406.066 535.864 391.731C536.181 387.168 537.425 383.041 539 378.773C539.34 377.845 539.681 376.917 540.031 375.96C545.457 362.176 553.225 349.597 560.863 336.962C565.939 328.565 570.925 320.119 575.875 311.648C581.094 302.722 586.333 293.811 591.68 284.962C594.466 280.341 597.238 275.712 600.013 271.085C601.687 268.294 603.361 265.504 605.035 262.714C605.606 261.762 606.177 260.81 606.766 259.83C607.173 259.151 607.58 258.472 608 257.773C608.632 257.844 609.264 257.914 609.915 257.987C622.668 259.35 635.249 258.889 648 257.773C646.588 261.574 644.832 264.945 642.762 268.429C642.113 269.523 641.464 270.618 640.796 271.745C640.093 272.921 639.391 274.097 638.688 275.273C637.962 276.491 637.238 277.709 636.513 278.927C631.641 287.099 626.677 295.21 621.646 303.284C618.127 308.936 614.666 314.62 611.25 320.335C606.769 327.834 602.257 335.314 597.722 342.78C596.627 344.582 595.533 346.385 594.439 348.188C591.001 353.85 587.553 359.506 584.082 365.148C566.736 391.436 566.736 391.436 562 421.773C563.515 426.052 563.515 426.052 566.82 428.933C571.61 430.779 576.816 429.557 581.523 427.867C597.88 420.23 610.162 405.429 620.835 391.305C622.336 389.33 623.889 387.398 625.438 385.46C649.524 354.426 669.244 319.869 689.008 285.991C694.546 276.506 700.214 267.108 706 257.773C707.305 257.935 708.609 258.098 709.953 258.265C714.569 258.776 719.109 258.926 723.75 258.898C724.907 258.895 724.907 258.895 726.087 258.892C732.758 258.842 739.36 258.43 746 257.773C744.521 263.167 741.965 267.276 738.938 271.898C733.639 280.132 728.504 288.457 723.438 296.835C722.697 298.059 721.956 299.283 721.215 300.507C720.132 302.296 719.049 304.085 717.967 305.875C715.12 310.58 712.251 315.272 709.375 319.96C703.082 330.235 696.889 340.57 690.711 350.914C689.241 353.37 687.761 355.821 686.277 358.269C666.372 388.891 666.372 388.891 661 423.773C662.102 426.6 662.527 427.502 665.188 429.023C673.394 431.211 679.705 428.544 687 424.773C690.229 422.674 693.11 420.314 696 417.773C696.789 417.092 697.578 416.412 698.391 415.71C708.509 406.801 717.613 397.317 726 386.773C726.995 385.565 727.993 384.36 728.992 383.156C736.611 373.95 743.731 364.464 750.628 354.707C751.794 353.063 752.976 351.43 754.16 349.8C757.083 345.747 759.621 341.703 761.938 337.273C765.011 331.513 768.719 326.687 773 321.773C773.446 321.259 773.893 320.746 774.353 320.217C781.006 312.625 787.904 305.853 796 299.773C797.045 298.985 798.091 298.198 799.168 297.386C812.639 287.427 826.973 278.862 842.102 271.682C843.944 270.8 845.769 269.89 847.594 268.972C854.818 265.395 862.172 262.531 869.812 259.96C870.672 259.67 871.531 259.38 872.417 259.081C887.247 254.248 904.265 250.897 918.02 260.128ZM825.824 310.57C822.033 314.832 818.467 319.244 815 323.773C814.133 324.894 813.266 326.015 812.398 327.136C808.903 331.66 805.419 336.191 802 340.773C802.33 341.433 802.66 342.093 803 342.773C862.596 324.175 862.596 324.175 905.688 281.374C908.446 275.907 908.614 270.799 908 264.773C906.397 261.845 905.307 261.195 902.188 260.187C874.304 254.754 842.265 292.387 825.824 310.57ZM640 372.773C641 374.773 641 374.773 641 374.773L640 372.773Z" fill="white"/>
<path d="M166.137 498.499C169.536 500.823 172.329 503.68 173.613 507.687C174.526 512.612 174.525 517.196 172.938 521.96C169.859 526.429 166.198 530.04 161 531.773C154.639 532.312 150.309 531.406 145 527.773C140.871 523.535 139.201 519.821 138.625 513.96C138.793 508.043 141.249 503.478 145.438 499.398C152.52 494.906 158.729 494.443 166.137 498.499Z" fill="white"/>
</svg>
