<svg width="1600" height="196" viewBox="0 0 1600 196" fill="none" xmlns="http://www.w3.org/2000/svg">
<path fill-rule="evenodd" clip-rule="evenodd" d="M10.941 195.2C16.718 194.852 21.7697 193.336 25.4615 187.705C27.902 183.981 28.1586 180.02 28.1586 174.08V91.2004C30.4297 92.7224 31.8607 95.0891 33.8358 97.0405C35.9282 99.1094 37.494 101.035 39.6008 103.118L57.8411 122.636C58.4787 123.325 58.5188 123.556 59.1186 124.238C61.9132 127.411 65.1579 130.189 67.7888 133.488L90.3141 157.684C91.2877 158.737 92.1978 159.508 93.2031 160.554L101.683 169.673C102.734 170.736 103.265 171.598 104.397 172.721C105.637 173.949 106.164 174.555 107.292 175.904C110.764 180.06 115.519 183.67 120.124 186.752C122.777 188.529 128.498 191.595 131.557 192.601C137.178 194.447 139.988 195.184 146.256 195.2H151.384C152.869 194.944 152.316 193.757 152.316 189.119V48.3205C147.094 48.3205 141.097 47.8575 136.451 48.7718C132.272 49.5946 128.54 52.5732 126.646 55.6078C123.882 60.045 124.158 62.9167 124.158 69.7606V152.64C123.049 151.365 121.966 150.28 120.714 149.041L93.2115 119.585C92.5115 118.749 92.4185 118.489 91.6014 117.676L75.9126 101.043C75.1956 100.268 75.0841 99.9024 74.3233 99.1132C73.6789 98.4435 73.2162 98.0164 72.5563 97.3606L41.5185 64.0792C36.7827 59.3295 30.6066 55.4925 24.6387 52.478C15.4042 47.8159 10.3945 48.3205 0 48.3205V195.2H10.941ZM328.637 24.9592C328.637 26.5927 328.335 30.72 329.917 30.72H349.118C361.172 30.72 366.746 22.5128 368.88 11.7623C369.276 9.76894 369.425 8.39396 369.74 6.22186L370.238 0C368.291 0.453165 349.546 8.88263 346.924 9.96585C340.243 12.7241 328.637 16.7263 328.637 24.9592ZM1024.64 195.2H1104.32C1110.56 195.2 1116.31 190.777 1118.83 185.711C1121.39 180.556 1120.64 177.19 1120.64 170.559H1052.48V64.9595C1052.48 61.7083 1050.91 57.7122 1049.33 55.6256C1049 55.1864 1048.8 55.0711 1048.42 54.6199C1041.87 46.834 1034.83 48.3205 1024.64 48.3205V195.2ZM1237.12 195.2H1317.12C1320.41 195.2 1323.77 193.793 1326.13 192.046L1328.41 190.173C1328.89 189.696 1328.93 189.572 1329.28 189.123L1331.82 185.262C1333.99 181.137 1333.44 175.241 1333.44 170.559H1265.28V65.9191C1265.28 60.3213 1263.1 56.7564 1260.48 53.7615C1254.57 47.0132 1245.88 48.3205 1237.12 48.3205V195.2ZM535.358 65.5994V73.9196H580.479V195.2H608.318V73.9196H633.279C643.108 73.9196 653.439 67.2983 653.439 56.6389V48.3205H557.758C551.381 48.3205 545.896 49.8009 542.206 52.6068C538.76 55.2279 535.358 59.715 535.358 65.5994ZM824.959 143.68V195.2H853.119V142.72C853.119 140.32 854.01 137.194 854.821 135.463C857.023 130.765 868.88 113.199 872.455 107.334C873.071 106.321 873.643 105.544 874.241 104.644L902.657 60.0967C903.854 58.179 907.485 53.0362 907.839 51.5199C890.561 51.5199 878.331 48.7578 869.893 62.5349C867.751 66.0325 865.822 69.2417 863.739 72.6996L845.3 103.221C844.394 104.729 840.232 111.907 839.038 113.28C838.76 112.237 836.792 109.262 836.141 108.179C835.103 106.458 834.147 104.763 833.061 102.939C830.96 99.4193 829.092 96.2298 826.979 92.6986L814.818 72.2207C813.834 70.4542 812.829 68.9019 811.822 67.217C805.235 56.2137 802.003 51.5199 786.558 51.5199H769.919C770.903 53.382 772.214 55.2102 773.377 57.0206L809.144 113.415C809.816 114.516 810.239 115.194 810.881 116.157C812.759 118.977 822.545 134.392 823.228 136.129C824.082 138.297 824.959 140.87 824.959 143.68ZM282.361 195.2C285.361 195.007 288.207 194.56 290.566 193.609C295.815 191.49 300.061 187.247 302.265 181.948C304.608 176.31 306.766 170.992 309.025 165.349L329.458 115.061C330.46 112.551 342.504 83.8953 343.039 81.6C343.932 82.2561 344.032 83.1023 344.501 84.2967L348.201 93.3982C349.334 96.1644 362.767 128.259 362.878 129.601C344.773 129.601 340.624 135.771 334.903 149.624C334.209 151.301 333.212 152.784 332.798 154.56H373.118C374.27 156.734 375.118 159.594 376.209 162.028C377.393 164.669 378.198 167.083 379.333 169.784L384.086 181.352C388.587 191.878 395.827 194.602 404.141 195.2H418.878C416.913 191.484 405.158 163.163 403.429 159.129L384.229 114.009C382.904 110.913 381.705 108.09 380.431 105.005C377.82 98.6781 357.578 52.2433 357.438 50.5603H330.239C328.579 53.6961 320.949 72.3836 318.727 77.4489L268.798 195.2H282.361ZM1600 195.198L1540.57 55.2718C1539.89 53.6803 1539.26 52.0267 1538.56 50.5603H1511.36L1507.63 59.6296C1501.13 74.2477 1494.95 90.0994 1488.43 104.749L1457.69 177.049C1456.36 180.145 1455.18 182.897 1453.85 186.008C1453.17 187.581 1452.65 188.933 1451.95 190.508C1451.24 192.108 1450.67 193.791 1449.92 195.2H1463.73C1466.68 195.007 1469.46 194.568 1471.73 193.65C1481.36 189.757 1483.55 182.16 1486.95 173.667C1488.14 170.7 1489.19 168.228 1490.38 165.257L1522.84 85.7178C1523.4 84.3424 1523.98 82.1983 1524.8 81.6L1544.32 129.601C1535.08 129.601 1529.8 130.583 1523.47 136.274C1522.82 136.866 1521.06 139.318 1520.63 140.151C1518.18 144.892 1515.9 150.816 1513.92 154.56H1554.56C1555.21 157.342 1565.81 182.414 1567.14 184.859C1569.47 189.157 1574.41 192.817 1579.16 194.284C1580.72 194.769 1582.58 195.047 1584.6 195.2H1600V195.198Z" fill="white"/>
</svg>
