<svg width="1174" height="394" viewBox="0 0 1174 394" fill="none" xmlns="http://www.w3.org/2000/svg">
<path d="M518.348 9.32031C518.445 34.8623 518.548 60.4043 518.655 85.9463C518.71 99.0772 518.764 112.209 518.813 125.34C518.856 136.79 518.903 148.24 518.953 159.689C518.98 165.747 519.004 171.806 519.025 177.864C519.045 183.577 519.069 189.289 519.097 195.002C519.106 197.088 519.114 199.174 519.12 201.261C519.151 211.792 519.349 222.248 520.091 232.755C520.371 236.919 520.471 241.063 520.477 245.235C520.485 246.405 520.485 246.405 520.492 247.598C520.506 250.105 520.514 252.613 520.519 255.121C520.524 256.43 520.524 256.43 520.528 257.766C520.543 262.372 520.552 266.979 520.557 271.586C520.562 276.297 520.586 281.008 520.614 285.719C520.633 289.389 520.638 293.059 520.64 296.729C520.643 298.465 520.651 300.201 520.664 301.937C520.848 327.866 512.493 352.076 494.316 371.113C482.052 383.113 482.051 383.113 477.316 383.113V385.113C457.427 393.113 457.427 393.113 449.316 393.113L448.316 386.113L450.844 385.668C462.987 383.248 471.069 378.248 478.316 368.113C482.193 361.521 485.743 354.818 486.93 347.176C487.316 345.114 487.317 345.113 488.24 342.66C493.32 325.923 492.731 307.359 492.566 290.051C492.553 287.431 492.54 284.812 492.528 282.192C492.494 275.229 492.44 268.265 492.382 261.302C492.325 254.45 492.279 247.598 492.237 240.746C491.741 160.861 490.614 80.989 489.316 1.11328H518.316C518.332 5.17546 518.332 5.17607 518.348 9.32031Z" fill="white"/>
<path fill-rule="evenodd" clip-rule="evenodd" d="M220.092 0C222.316 0.113503 222.316 0.113387 223.316 1.11328C223.441 3.06421 223.494 5.01991 223.52 6.97461C223.54 8.25895 223.56 9.54393 223.58 10.8672C223.597 12.3137 223.614 13.7605 223.631 15.207C223.651 16.7334 223.672 18.2598 223.693 19.7861C223.75 24.0151 223.798 28.2445 223.845 32.4736C223.875 35.182 223.906 37.8903 223.938 40.5986C224.496 88.5079 224.434 136.419 224.389 184.331C224.377 196.676 224.371 209.021 224.366 221.366C224.356 246.615 224.339 271.864 224.316 297.113C220.671 297.142 217.025 297.16 213.379 297.176L210.225 297.201L207.226 297.211C205.852 297.219 205.852 297.22 204.449 297.228C202.316 297.114 202.316 297.113 201.316 296.113C201.183 294.574 201.113 293.029 201.07 291.484L200.971 288.596C200.91 286.593 200.853 284.591 200.799 282.588C200.593 276.799 199.95 271.675 198.316 266.113C192.93 268.981 188.272 271.904 184.066 276.363C173.857 286.983 161.677 293.334 148.316 299.113L144.82 300.699C128.075 307.457 105.866 309.139 88.3163 305.113V303.113L85.3788 302.738C84.0245 302.531 82.6703 302.323 81.3163 302.113L77.3788 301.551C52.3983 295.73 30.6841 274.254 17.4843 253.434C10.9575 242.82 6.77875 231.348 2.7343 219.617C2.35967 218.532 2.35958 218.532 1.97746 217.425C-0.019958 210.441 0.0966095 203.448 0.0760964 196.24C0.0665035 194.213 0.0354827 192.186 0.00383073 190.158C-0.0959318 177.951 1.74945 166.202 5.94133 154.676L6.70598 152.558C16.657 126.207 36.577 104.337 61.3163 91.1133C63.2526 90.3853 65.2119 89.7141 67.1913 89.1133C70.8655 87.9509 74.3405 86.7129 77.8163 85.0508C89.6145 79.6121 102.29 78.9222 115.066 78.8633L118.41 78.8008C144.244 78.6795 166.501 92.0217 184.957 109C188.888 112.521 192.282 115.387 197.316 117.113C198.061 113.777 198.448 110.677 198.475 107.261C198.484 106.311 198.494 105.362 198.504 104.384C198.51 103.354 198.515 102.325 198.521 101.265C198.531 100.172 198.541 99.0784 198.552 97.9521C198.583 94.3432 198.608 90.734 198.633 87.125C198.653 84.6212 198.674 82.1171 198.695 79.6133C198.745 73.6991 198.791 67.7844 198.834 61.8701C198.888 54.474 198.949 47.0777 199.01 39.6816C199.117 26.4923 199.219 13.3027 199.316 0.113281C203.129 0.0844096 206.941 0.0665261 210.754 0.0507812L214.053 0.0253906L217.187 0.015625C218.146 0.0103885 219.104 0.00539522 220.092 0ZM112.798 102.813C100.356 103.009 88.8483 105.3 77.3163 110.113V112.113L75.1288 112.438C60.8417 115.87 45.7678 132.906 38.2421 144.812C30.9653 156.938 25.1557 170.642 25.2187 184.945L25.2284 188.861C25.2368 190.216 25.2453 191.571 25.2538 192.926C25.2588 194.3 25.2634 195.675 25.2675 197.049C25.2793 200.404 25.2957 203.759 25.3163 207.113H27.3163L27.5038 210.676C29.3047 226.391 37.1688 241.235 47.3163 253.113L49.2655 255.535C58.7422 266.816 70.9685 274.205 84.3163 280.113L86.703 281.172C93.3392 283.736 100.279 283.883 107.316 284.113C108.058 284.146 108.799 284.178 109.562 284.212C132.378 285.15 152.322 278.047 170.316 264.113L172.769 262.219C187.39 250.078 196.373 233.213 200.625 214.93C201.316 212.114 201.316 212.113 202.316 211.113C204.967 194.032 202.763 178.353 197.316 162.113L196.414 159.27C192.085 146.34 184.81 136.62 175.316 127.113L173.101 124.863C164.798 116.946 154.701 111.792 144.066 107.738C143.13 107.38 143.129 107.381 142.174 107.016C133.48 103.881 124.904 102.745 115.691 102.801L112.798 102.813Z" fill="white"/>
<path fill-rule="evenodd" clip-rule="evenodd" d="M576.492 108.586C609.517 70.6556 662.005 64.6753 702.254 94.2734C707.934 98.7463 712.742 103.57 717.344 109.145C719.398 111.194 720.482 111.758 723.316 112.113C726.396 108.743 726.722 106.322 726.828 101.816L726.935 98.1641L727.004 94.3633L727.107 90.5156C727.19 87.382 727.255 84.2474 727.316 81.1133H749.316C749.449 101.025 749.579 120.937 749.707 140.849C749.767 150.101 749.827 159.353 749.889 168.605C750.172 211.109 750.398 253.609 750.316 296.113H728.316L728.133 290.602C728.048 288.21 727.964 285.818 727.879 283.426L727.76 279.795L727.633 276.289C727.596 275.226 727.559 274.163 727.521 273.068C727.331 270.332 726.923 267.785 726.316 265.113L723.441 266.613C720.317 268.113 720.316 268.113 718.316 268.113L717.555 269.855C708.558 286.259 686.128 296.857 669.16 302.422C647.078 307.791 621.064 304.972 601.523 293.191C596.78 290.118 592.487 286.933 588.316 283.113C587.76 282.61 587.203 282.107 586.63 281.588C571.677 267.903 555.973 248.982 553.316 228.113H551.316C550.665 225.135 550.02 222.156 549.379 219.176L548.826 216.658C541.598 182.881 548.703 150.427 566.316 121.113C568.757 117.519 571.374 114.303 574.316 111.113L576.492 108.586ZM667.527 103.141C639.116 94.5371 609.956 106.684 591.441 128.613C590.041 130.427 588.665 132.261 587.316 134.113L585.457 136.652C571.438 157.185 566.266 182.841 570.066 207.301C571.01 211.487 572.429 215.388 574.129 219.324C575.284 222.037 576.306 224.785 577.331 227.549C583.997 245.152 598.223 265.138 615.691 273.426C621.436 275.688 627.39 277.398 633.316 279.113L636.617 280.207C649.102 283.265 662.432 281.583 674.316 277.113L677.453 276.016C695.16 269.327 708.329 255.424 717.316 239.113V237.113H719.316L723.027 229.105C727.985 217.597 728.672 205.624 728.632 193.23C728.629 191.181 728.652 189.133 728.678 187.084C728.785 164.791 721.156 142.606 705.594 126.352C695.046 115.985 684.451 108.785 670.316 104.113L667.527 103.141Z" fill="white"/>
<path fill-rule="evenodd" clip-rule="evenodd" d="M324.816 84.5508C353.648 67.9728 394.966 79.3161 420.695 96.7227C422.983 98.4413 425.152 100.242 427.316 102.113L430.254 104.613C450.893 122.566 462.08 148.758 465.066 175.676C465.276 178.753 465.343 181.807 465.332 184.891L465.325 187.301L465.316 189.113C464.632 189.118 463.947 189.122 463.241 189.126C446.37 189.231 429.499 189.34 412.628 189.453C404.468 189.508 396.308 189.56 388.148 189.61C345.893 189.823 345.893 189.824 303.643 190.47C301.974 190.505 300.304 190.538 298.634 190.567C296.424 190.608 294.215 190.661 292.006 190.719C290.818 190.747 289.629 190.775 288.405 190.804C285.314 191.114 283.074 191.698 280.316 193.113C276.672 200.402 280.423 212.745 282.879 220.113C291.678 245.261 305.793 265.009 330.125 276.738C347.09 284.048 372.91 283.895 390.225 277.397C394.735 275.562 399.023 273.409 403.316 271.113L406.246 269.559C419.233 261.992 428.528 250.025 437.316 238.113C438.642 236.44 439.972 234.771 441.316 233.113C445.55 233.734 448.839 235.219 452.629 237.176L455.867 238.836L458.316 240.113C457.702 243.116 456.751 245.3 455.094 247.871C454.642 248.574 454.19 249.277 453.725 250.001C453.239 250.739 452.754 251.478 452.254 252.238C451.754 253.002 451.254 253.765 450.738 254.552C435.696 277.266 416.662 294.449 389.418 300.523C359.979 306.122 330.379 304.584 305.063 287.386C300.067 283.748 295.703 279.448 291.316 275.113L289.184 273.199C272.743 258.09 261.778 234.353 258.711 212.512C258.437 210.108 258.437 210.108 257.316 208.113C257.169 205.733 257.08 203.383 257.043 201C257.024 199.924 257.024 199.924 257.005 198.826C256.777 182.674 256.927 167.541 262.316 152.113C262.573 151.36 262.83 150.606 263.095 149.83C272.262 123.703 291.302 101.275 316.098 88.7031C317.569 88.0581 319.05 87.4336 320.543 86.8398C322.5 86.0964 322.5 86.0962 324.816 84.5508ZM387.316 103.113C372.803 98.0359 355.356 98.8418 340.316 101.113V103.113C330.588 104.686 322.015 107.239 314.25 113.488L312.316 115.113C303.684 122.032 297.523 130.041 292.094 139.668C287.686 148.212 280.316 160.176 283.316 170.113C286.316 172.113 286.316 172.114 288.215 172.361C288.962 172.36 289.688 172.358 290.413 172.356C291.705 172.361 291.705 172.362 292.972 172.366C294.404 172.355 294.404 172.354 295.809 172.344C299.071 172.344 302.334 172.34 305.597 172.322C308 172.308 310.404 172.297 312.808 172.288C319.666 172.265 326.524 172.227 333.383 172.18C339.593 172.136 345.803 172.101 352.013 172.07C361.47 172.025 370.927 171.97 380.385 171.898C385.699 171.857 391.013 171.813 396.327 171.784C401.487 171.759 406.647 171.729 411.808 171.681C413.734 171.661 415.66 171.642 417.586 171.625C420.308 171.616 423.03 171.607 425.753 171.577C427.003 171.562 427.004 171.561 428.229 171.546C432.098 171.553 435.335 171.666 438.795 169.717C440.316 168.114 440.316 168.113 440.742 166.027L440.629 163.738C440.433 157.741 438.949 152.507 436.672 146.992C427.102 126.667 410.992 111.789 389.918 103.992L387.316 103.113Z" fill="white"/>
<path d="M980.316 73.1133C979.45 77.1643 977.956 80.9948 976.504 84.8633C976.234 85.5834 975.964 86.304 975.685 87.0459C974.083 91.2609 972.345 95.3029 970.238 99.293C967.415 104.867 965.409 110.858 963.253 116.711C960.671 123.7 957.903 130.561 954.852 137.358C953.309 140.804 951.842 144.267 950.451 147.777C948.499 152.675 946.486 157.545 944.445 162.406C944.086 163.263 943.727 164.121 943.357 165.004C942.199 167.77 941.039 170.535 939.879 173.301C939.075 175.22 938.271 177.139 937.467 179.058C935.852 182.911 934.237 186.764 932.621 190.617C930.841 194.862 929.062 199.107 927.284 203.352C926.091 206.199 924.898 209.046 923.705 211.893C923.16 213.192 922.616 214.492 922.071 215.792C917.445 226.831 917.445 226.831 915.641 230.977C914.169 234.462 912.86 237.997 911.566 241.551C909.215 247.923 906.634 254.161 903.852 260.357C901.923 264.664 900.146 269.016 898.405 273.401C896.425 278.335 894.346 283.226 892.254 288.113L890.939 291.25L889.656 294.238C889.278 295.128 888.901 296.017 888.512 296.934C887.317 299.113 887.316 299.113 884.316 301.113C881.441 301.738 881.441 301.738 878.316 301.113C873.442 294.393 870.327 286.809 867.004 279.238C866.428 277.938 865.851 276.638 865.273 275.339C863.614 271.6 861.964 267.857 860.316 264.113C858.818 260.717 857.319 257.321 855.816 253.926L854.863 251.767C852.823 247.172 850.632 242.68 848.332 238.211C847.035 235.532 846.058 232.782 845.062 229.98C844.292 228.052 843.37 226.339 842.316 224.551C840.332 221.14 838.824 217.757 837.316 214.113C834.624 207.968 831.857 201.855 829.102 195.738C828.712 194.873 828.322 194.008 827.921 193.117C825.651 188.077 823.381 183.037 821.109 177.998C819.692 174.853 818.274 171.707 816.856 168.562C816.106 166.896 815.356 165.231 814.605 163.565C810.275 153.955 805.962 144.336 801.699 134.695C801.332 133.866 800.964 133.036 800.586 132.181C798.838 128.23 797.094 124.277 795.355 120.322C794.729 118.905 794.103 117.488 793.477 116.07C793.199 115.436 792.921 114.801 792.636 114.147C791.08 110.638 789.323 107.382 787.316 104.113C786.574 102.435 785.834 100.756 785.129 99.0625C782.702 93.2393 780.116 87.5522 777.051 82.0352C776.14 79.6511 776.267 77.6468 776.316 75.1133C780.943 75.039 785.569 74.9854 790.195 74.9492C791.768 74.9342 793.342 74.9137 794.915 74.8877C797.179 74.8512 799.443 74.8335 801.707 74.8203C802.408 74.8048 803.11 74.7894 803.832 74.7734C806.935 74.7724 809.005 74.9352 811.722 76.4971C813.658 78.4608 814.394 80.1443 815.316 82.7383L816.32 85.4297L817.316 88.1133C819.558 93.5498 822.103 98.6995 825.07 103.777C826.345 106.168 827.394 108.616 828.453 111.107C829.985 114.668 831.599 118.191 833.203 121.719C833.977 123.425 834.751 125.131 835.524 126.837C835.929 127.728 836.333 128.619 836.75 129.537C843.594 144.623 850.401 159.725 857.129 174.863C857.453 175.591 857.776 176.319 858.109 177.068C861.812 185.394 865.465 193.739 869.037 202.122C872.02 209.245 872.02 209.245 875.426 216.168C876.316 218.113 876.316 218.114 876.316 221.113H878.316L881.172 227.535C881.906 229.19 882.639 230.846 883.367 232.504C886.987 241.758 886.987 241.758 893.316 249.113C895.492 249.361 895.492 249.361 897.316 248.113C898.613 245.623 898.613 245.623 899.316 243.113H901.316C901.57 241.818 901.823 240.524 902.084 239.189C903.207 234.16 904.986 229.618 907.035 224.902C907.405 224.033 907.775 223.164 908.156 222.269C909.369 219.422 910.593 216.58 911.816 213.738C912.671 211.736 913.526 209.734 914.379 207.731C915.7 204.631 917.021 201.531 918.346 198.432C922.874 187.83 927.317 177.191 931.754 166.551C939.829 147.2 939.829 147.2 943.934 137.691C944.349 136.727 944.349 136.727 944.773 135.743C946.017 132.862 947.268 129.984 948.527 127.109C951.349 120.608 953.837 114.041 956.161 107.346C957.648 103.187 959.33 99.1279 961.062 95.0664C961.93 93.0233 962.775 90.9702 963.602 88.9102C969.912 73.2406 969.912 73.2404 974.164 73.0156L980.316 73.1133Z" fill="white"/>
<path d="M1172.32 71.1133C1173.11 105.694 1173.47 140.271 1173.55 174.86C1173.56 179.226 1173.58 183.592 1173.6 187.958C1173.63 193.187 1173.64 198.416 1173.64 203.645C1173.64 205.585 1173.65 207.525 1173.66 209.466C1173.73 219.434 1173.47 228.641 1171 238.35C1170.4 240.764 1170.09 242.967 1169.91 245.438C1169.14 250.232 1167.23 253.758 1164.82 257.926C1164.37 258.712 1163.92 259.499 1163.46 260.309C1153.2 277.906 1139.46 289.111 1120.32 296.113L1117.86 297.148C1099.73 304.038 1074.66 302.04 1057.04 294.758C1038.23 285.901 1023.43 271.912 1015.39 252.648C1014.34 250.05 1014.34 250.05 1012.85 247.465C1011.12 243.68 1010.3 240.033 1009.66 235.954C1009.53 235.169 1009.41 234.384 1009.28 233.575C1007.95 224.617 1007.84 215.704 1007.8 206.664C1007.79 204.819 1007.77 202.974 1007.75 201.13C1007.7 196.236 1007.67 191.343 1007.65 186.449C1007.62 182.393 1007.59 178.337 1007.55 174.28C1007.26 140.225 1007.2 106.169 1007.32 72.1133H1029.32C1029.92 94.6933 1030.39 117.268 1030.56 139.855C1030.58 141.939 1030.6 144.023 1030.61 146.106C1030.68 154.564 1030.74 163.022 1030.79 171.479C1030.82 176.768 1030.87 182.056 1030.91 187.345C1030.93 189.321 1030.94 191.298 1030.95 193.274C1031 203.754 1031.27 213.801 1033.32 224.113C1033.45 224.846 1033.58 225.578 1033.72 226.333C1036.83 242.496 1043.62 257.898 1056.95 268.133C1071.25 277.799 1087.79 280.348 1104.69 277.426C1109.63 276.248 1114.23 274.198 1118.85 272.137C1121.32 271.113 1121.32 271.113 1123.32 271.113V269.113C1124.86 267.852 1124.86 267.851 1126.94 266.426C1134.1 261.181 1138.04 255.218 1142.12 247.371C1143.32 245.114 1143.32 245.113 1144.32 244.113C1144.84 241.449 1145.31 238.791 1145.75 236.113C1147.33 226.807 1147.33 226.807 1148.44 222.301C1150.7 212.536 1150.46 202.321 1150.43 192.358C1150.43 190.381 1150.43 190.381 1150.43 188.363C1150.43 184.788 1150.42 181.212 1150.42 177.637C1150.41 173.885 1150.41 170.133 1150.41 166.382C1150.41 159.296 1150.4 152.209 1150.39 145.123C1150.38 137.048 1150.37 128.973 1150.37 120.897C1150.36 104.303 1150.34 87.7079 1150.32 71.1133H1172.32Z" fill="white"/>
</svg>
