<svg width="927" height="270" viewBox="0 0 927 270" fill="none" xmlns="http://www.w3.org/2000/svg">
<path d="M850.125 64.0225C851.21 64.0131 852.294 64.0038 853.412 63.9942C874.016 64.0754 892.335 70.0064 907.266 84.4405C910.814 88.1151 913.536 91.8131 916 96.2725C916.437 97.0279 916.874 97.7833 917.324 98.5616C925.021 112.753 928.867 132.152 926 148.272C923.758 152.376 921.118 154.175 917 156.272C916.107 156.743 915.213 157.214 914.293 157.698C890.745 168.619 862.429 169.122 836.981 169.931C833.12 170.06 829.371 170.219 825.543 170.769C820.479 171.489 815.42 171.598 810.312 171.772C802.183 172.077 794.095 172.438 786 173.272C783.925 188.458 783.413 202.381 792.812 215.46C793.534 216.388 794.256 217.316 795 218.272C795 218.932 795 219.592 795 220.272C796.333 220.94 797.666 221.607 799 222.272C799.651 222.602 800.302 222.932 800.973 223.272C816.301 230.607 833.679 229.029 850 226.272C850.66 225.942 851.32 225.612 852 225.272C853.35 225.093 854.706 224.952 856.062 224.835C863.195 224.093 869.788 222.409 876.547 220.058C879.36 219.157 882.191 218.462 885.062 217.772C890.864 216.363 896.221 214.501 901.688 212.085C904.278 211.175 906.274 211.045 909 211.272C911.119 213.392 910.418 217.892 910.562 220.835C910.606 221.641 910.649 222.448 910.693 223.278C910.8 225.276 910.9 227.274 911 229.272C888.394 243.872 863.893 255.151 838.188 263.085C837.294 263.363 836.401 263.641 835.48 263.927C821.837 268.001 809.091 269.77 794.92 269.664C792.371 269.647 789.823 269.664 787.273 269.683C774.692 269.701 763.043 268.534 751.75 262.522C751.076 262.173 750.402 261.824 749.708 261.464C744.337 258.608 739.47 255.424 735 251.272C734.475 250.801 733.951 250.329 733.41 249.843C729.579 245.921 727.216 241.176 724.75 236.335C724.237 235.333 724.237 235.333 723.715 234.31C723.391 233.649 723.068 232.988 722.734 232.308C722.305 231.432 722.305 231.432 721.866 230.538C719.56 224.505 718.738 218.942 718.664 212.503C718.656 211.789 718.647 211.075 718.639 210.339C718.619 208.046 718.619 205.753 718.625 203.46C718.626 202.675 718.627 201.89 718.628 201.081C718.672 189.044 719.375 177.825 723 166.272C723.268 165.399 723.536 164.526 723.812 163.626C727.674 151.205 731.716 138.734 738.188 127.397C738.577 126.713 738.966 126.029 739.368 125.324C752.74 102.3 771.787 85.34 796 74.2725C796.74 73.9257 797.48 73.579 798.242 73.2217C806.173 69.7636 814.559 68.0083 823 66.2725C824.087 66.043 825.173 65.8136 826.293 65.5772C834.219 64.1791 842.092 64.07 850.125 64.0225ZM813.316 105.022C806.885 113.041 803.061 122.685 799.625 132.272C799.362 133.003 799.099 133.733 798.828 134.485C797.624 137.965 797 140.55 797 144.272C804.891 144.323 812.753 144.195 820.637 143.87C822.206 143.807 822.206 143.807 823.807 143.743C825.99 143.654 828.174 143.564 830.358 143.473C833.717 143.334 837.076 143.202 840.436 143.071C842.565 142.984 844.695 142.896 846.824 142.808C847.831 142.769 848.839 142.73 849.876 142.691C850.798 142.651 851.721 142.611 852.671 142.57C853.485 142.536 854.299 142.503 855.138 142.469C857.014 142.468 857.014 142.468 858 141.272C858.255 137.801 858.185 134.315 858.188 130.835C858.206 129.393 858.206 129.393 858.225 127.923C858.246 117.278 856.873 107.445 850.125 98.8975C839.131 90.4905 822.056 95.9382 813.316 105.022Z" fill="white"/>
<path d="M508.932 68.1048C510.396 68.0969 511.86 68.0858 513.323 68.0713C515.286 68.0531 517.248 68.0493 519.211 68.0464C520.831 68.0391 520.831 68.0391 522.484 68.0316C525 68.2725 525 68.2725 527 70.2725C527.172 72.7942 527.233 75.192 527.188 77.71C527.187 78.7319 527.187 78.7319 527.186 79.7744C527.12 87.1675 527.12 87.1675 524.503 89.7493C523.862 90.275 523.221 90.8007 522.56 91.3423C517.447 95.685 512.759 100.396 508.036 105.155C507.063 106.132 506.089 107.108 505.116 108.084C503.036 110.17 500.958 112.258 498.881 114.347C495.598 117.648 492.311 120.945 489.023 124.241C479.679 133.609 470.342 142.982 461.009 152.36C455.842 157.551 450.671 162.739 445.497 167.923C442.225 171.201 438.958 174.484 435.694 177.77C433.67 179.806 431.643 181.837 429.614 183.867C428.22 185.264 426.831 186.666 425.443 188.068C424.618 188.89 423.794 189.713 422.945 190.561C422.227 191.282 421.509 192.003 420.77 192.746C419 194.272 419 194.272 417 194.272C417 194.932 417 195.592 417 196.272C415.637 197.612 415.637 197.612 413.688 199.21C410.058 202.296 406.619 205.532 403.25 208.897C402.348 209.797 401.445 210.697 400.516 211.624C397.961 214.226 397.961 214.226 395.797 217.108C395.204 217.823 394.611 218.537 394 219.272C393.34 219.272 392.68 219.272 392 219.272C391.786 219.814 391.572 220.355 391.352 220.913C389.519 224.112 387.002 226.482 384.375 229.022C383.859 229.529 383.344 230.036 382.812 230.558C381.546 231.801 380.274 233.037 379 234.272C392.669 234.922 406.314 235.559 420 235.272C420.81 235.26 421.62 235.247 422.455 235.234C446.334 234.793 466.892 230.589 486.133 215.612C490.392 212.303 490.392 212.303 493.5 212.147C497.017 213.73 499.969 215.905 503 218.272C502.537 223.03 500.633 225.185 497.375 228.585C493.608 232.567 489.975 236.595 486.473 240.812C485 242.272 485 242.272 482 243.272C482 243.932 482 244.592 482 245.272C480.057 246.901 478.129 248.376 476.062 249.835C475.441 250.275 474.819 250.714 474.178 251.167C464.503 257.844 453.982 264.21 442.395 266.737C439.92 267.229 439.92 267.229 437.351 268.291C433.499 269.419 429.962 269.546 425.989 269.515C425.207 269.517 424.425 269.519 423.62 269.521C421.041 269.525 418.462 269.514 415.883 269.503C414.066 269.502 412.248 269.501 410.431 269.502C406.613 269.5 402.795 269.492 398.977 269.478C394.156 269.462 389.335 269.458 384.515 269.458C334.519 269.457 334.519 269.457 321.951 267.756C317.606 267.224 313.348 267.067 308.977 266.991C307.28 266.953 305.583 266.916 303.887 266.878C301.24 266.824 298.593 266.772 295.947 266.72C293.373 266.669 290.8 266.611 288.227 266.554C287.431 266.54 286.635 266.527 285.815 266.513C280.226 266.385 280.226 266.385 278 265.272C277.423 257.336 279.076 251.771 284.245 245.586C287.181 242.483 290.19 239.474 293.238 236.482C294.398 235.326 295.556 234.168 296.713 233.01C299.843 229.884 302.987 226.773 306.134 223.664C309.431 220.403 312.712 217.127 315.996 213.852C322.212 207.657 328.44 201.474 334.674 195.295C343.826 186.222 352.961 177.132 362.095 168.04C363.443 166.698 364.792 165.356 366.14 164.014C366.798 163.359 367.456 162.704 368.134 162.029C372.045 158.136 375.96 154.248 379.879 150.363C382.313 147.949 384.746 145.532 387.178 143.116C388.307 141.996 389.436 140.877 390.566 139.758C392.108 138.232 393.648 136.703 395.186 135.173C396.049 134.318 396.911 133.463 397.799 132.582C400.015 130.359 400.015 130.359 401.676 127.966C402.331 127.128 402.331 127.128 403 126.272C403.66 126.272 404.32 126.272 405 126.272C405.66 124.952 406.32 123.632 407 122.272C407.66 122.272 408.32 122.272 409 122.272C409 121.612 409 120.952 409 120.272C409.66 120.272 410.32 120.272 411 120.272C411.66 118.952 412.32 117.632 413 116.272C413.66 116.272 414.32 116.272 415 116.272C415 115.612 415 114.952 415 114.272C415.66 114.272 416.32 114.272 417 114.272C417 113.612 417 112.952 417 112.272C417.66 112.272 418.32 112.272 419 112.272C419.245 111.7 419.49 111.128 419.742 110.538C421.211 107.892 422.953 106.124 425.125 104.022C425.849 103.316 426.574 102.61 427.32 101.882C427.875 101.351 428.429 100.82 429 100.272C424.833 100.243 420.667 100.225 416.5 100.21C415.346 100.202 414.193 100.193 413.004 100.185C406.777 100.167 400.618 100.329 394.406 100.772C384.608 101.467 374.818 101.382 365 101.335C363.146 101.33 361.292 101.325 359.437 101.321C354.958 101.31 350.479 101.293 346 101.272C345.781 97.474 346.262 95.1521 348.047 91.8037C348.48 90.9852 348.913 90.1666 349.359 89.3233C349.818 88.4815 350.277 87.6398 350.75 86.7725C351.415 85.5099 351.415 85.5099 352.094 84.2217C353.354 81.8687 354.602 79.5467 356 77.2725C356.744 75.9352 356.744 75.9352 357.503 74.5708C361.412 70.9723 365.364 71.2699 370.527 71.0303C371.683 70.9612 372.838 70.8921 374.028 70.8209C394.354 69.734 414.734 69.5535 435.083 69.208C439.699 69.1277 444.314 69.0395 448.93 68.9512C468.928 68.5698 488.93 68.2005 508.932 68.1048Z" fill="white"/>
<path d="M725.115 68.1729C726.09 68.1547 727.066 68.1366 728.071 68.118C729.355 68.0896 729.355 68.0896 730.665 68.0606C733.207 68.2913 734.812 68.9918 737 70.2725C736.913 72.67 736.806 75.064 736.688 77.46C736.654 78.4703 736.654 78.4703 736.619 79.501C736.2 87.3038 732.267 91.3023 727 96.5315C726.398 97.137 725.796 97.7424 725.176 98.3662C723.194 100.357 721.205 102.34 719.215 104.323C717.834 105.706 716.453 107.089 715.072 108.472C712.183 111.364 709.29 114.253 706.394 117.139C702.676 120.846 698.967 124.562 695.26 128.28C692.413 131.134 689.561 133.984 686.708 136.832C685.338 138.201 683.969 139.571 682.602 140.943C680.696 142.854 678.785 144.758 676.871 146.66C676.303 147.232 675.735 147.804 675.15 148.393C671.229 152.273 671.229 152.273 669 152.273C668.67 153.263 668.34 154.253 668 155.273C666.417 156.836 666.417 156.836 664.407 158.497C660.231 162.043 656.344 165.793 652.482 169.677C651.779 170.38 651.076 171.083 650.351 171.808C648.054 174.105 645.762 176.405 643.469 178.706C641.866 180.311 640.263 181.915 638.66 183.519C634.463 187.72 630.268 191.925 626.074 196.13C621.786 200.428 617.494 204.724 613.203 209.021C604.799 217.435 596.399 225.853 588 234.273C594.296 235.115 594.296 235.115 600.633 235.402C601.448 235.405 602.264 235.408 603.103 235.411C603.959 235.409 604.814 235.407 605.695 235.405C606.605 235.406 607.515 235.407 608.453 235.408C610.37 235.409 612.288 235.407 614.206 235.403C617.096 235.398 619.985 235.403 622.875 235.409C642.404 235.566 642.404 235.566 661.625 232.523C662.338 232.346 663.051 232.17 663.786 231.988C676.232 228.781 686.745 223.217 696.703 215.058C699 213.273 699 213.273 701.312 212.773C705.255 213.506 708.516 215.336 712 217.273C712.361 220.512 712.267 221.897 710.348 224.597C709.594 225.377 708.839 226.156 708.062 226.96C707.238 227.829 706.413 228.698 705.562 229.593C704.717 230.477 703.871 231.361 703 232.273C701.517 233.957 700.038 235.644 698.562 237.335C686.594 250.542 673.8 259.419 657 265.272C655.66 265.841 654.325 266.421 653 267.022C647.392 269.359 642.183 269.417 636.2 269.402C635.323 269.404 634.445 269.405 633.541 269.407C630.637 269.412 627.733 269.409 624.828 269.405C622.788 269.406 620.747 269.407 618.707 269.408C614.416 269.41 610.126 269.408 605.835 269.403C600.41 269.397 594.985 269.401 589.56 269.406C534.737 269.456 534.737 269.456 521.835 267.758C518.089 267.284 514.429 267.07 510.656 266.956C509.674 266.925 509.674 266.925 508.673 266.893C506.615 266.829 504.558 266.769 502.5 266.71C501.091 266.667 499.682 266.623 498.273 266.579C494.849 266.474 491.425 266.371 488 266.272C486.283 263.297 485.937 262.601 486.617 259.065C487.032 257.876 487.447 256.686 487.875 255.46C488.264 254.278 488.654 253.096 489.055 251.878C490.409 248.872 492.038 247.184 494.569 245.091C499.22 241.131 503.528 236.889 507.84 232.565C508.647 231.759 509.455 230.952 510.287 230.121C511.978 228.431 513.668 226.739 515.357 225.046C517.951 222.447 520.55 219.853 523.15 217.259C524.797 215.611 526.444 213.964 528.09 212.315C528.869 211.538 529.648 210.761 530.451 209.961C531.523 208.884 531.523 208.884 532.617 207.785C533.248 207.153 533.879 206.521 534.529 205.871C536.091 204.322 536.091 204.322 537 202.273C537.66 202.273 538.32 202.273 539 202.273C539 201.613 539 200.953 539 200.273C539.66 200.273 540.32 200.273 541 200.273C541 199.613 541 198.953 541 198.273C541.66 198.273 542.32 198.273 543 198.273C543 197.613 543 196.953 543 196.273C543.66 196.273 544.32 196.273 545 196.273C545 195.613 545 194.953 545 194.273C545.66 194.273 546.32 194.273 547 194.273C547 193.613 547 192.953 547 192.273C547.66 192.273 548.32 192.273 549 192.273C549 191.613 549 190.953 549 190.273C549.66 190.273 550.32 190.273 551 190.273C551 189.613 551 188.953 551 188.273C551.66 188.273 552.32 188.273 553 188.273C553 187.613 553 186.953 553 186.273C553.66 186.273 554.32 186.273 555 186.273C555 185.613 555 184.953 555 184.273C555.66 184.273 556.32 184.273 557 184.273C557 183.613 557 182.953 557 182.273C557.66 182.273 558.32 182.273 559 182.273C559 181.613 559 180.953 559 180.273C559.66 180.273 560.32 180.273 561 180.273C561 179.613 561 178.953 561 178.273C561.66 178.273 562.32 178.273 563 178.273C563.26 177.688 563.519 177.104 563.787 176.502C565.085 174.117 566.493 172.521 568.406 170.601C569.068 169.937 569.729 169.273 570.41 168.589C571.1 167.907 571.789 167.225 572.5 166.523C573.19 165.825 573.879 165.128 574.59 164.409C575.251 163.751 575.912 163.092 576.594 162.413C577.199 161.81 577.804 161.207 578.428 160.586C580 159.273 580 159.273 582 159.273C582.248 158.654 582.495 158.035 582.75 157.398C584.206 154.922 585.378 154.321 588 153.273C588 152.613 588 151.953 588 151.273C588.66 151.273 589.32 151.273 590 151.273C590.238 150.709 590.476 150.145 590.722 149.565C592.284 146.764 594.174 144.859 596.45 142.596C597.371 141.675 598.291 140.754 599.24 139.806C600.246 138.81 601.252 137.815 602.258 136.819C603.287 135.794 604.315 134.769 605.343 133.743C608.045 131.049 610.752 128.361 613.461 125.674C616.226 122.929 618.986 120.179 621.746 117.429C627.159 112.038 632.577 106.653 638 101.273C618.159 101.21 598.337 101.335 578.5 101.773C576.189 101.821 573.878 101.869 571.566 101.917C566.044 102.032 560.522 102.151 555 102.273C555.899 94.8032 555.899 94.8032 557.707 91.5538C558.047 90.9311 558.386 90.3085 558.736 89.667C559.269 88.7292 559.269 88.7292 559.812 87.7725C560.156 87.1473 560.5 86.5221 560.854 85.878C561.543 84.628 562.24 83.3818 562.944 82.1397C563.668 80.8594 564.381 79.5725 565.083 78.2803C567.778 73.3835 567.778 73.3835 570 72.2725C572.421 72.0503 574.821 71.8831 577.248 71.7571C578.369 71.6949 578.369 71.6949 579.514 71.6313C582.008 71.4962 584.502 71.3697 586.996 71.2452C587.86 71.2011 588.725 71.157 589.615 71.1115C609.207 70.1273 628.792 69.8736 648.405 69.7299C656.365 69.6703 664.325 69.5956 672.285 69.5186C673.56 69.5068 673.56 69.5068 674.86 69.4947C687.399 69.3749 699.921 69.0934 712.451 68.6059C716.672 68.4422 720.893 68.3079 725.115 68.1729Z" fill="white"/>
<path d="M82.1445 0.358427C84.0393 0.372684 85.934 0.383097 87.8288 0.38983C92.8058 0.418462 97.7804 0.501996 102.756 0.59622C107.834 0.681405 112.912 0.709545 117.99 0.745146C125.387 0.808563 132.783 0.884367 140.179 1.01614C141.352 1.03196 141.352 1.03196 142.548 1.04809C147.884 1.15649 147.884 1.15649 149 2.27249C148.491 8.52147 146.611 14.3104 144.75 20.2725C144.463 21.2122 144.175 22.1519 143.879 23.1201C141.989 29.2518 139.982 35.3394 137.939 41.4215C136.404 46.0127 134.933 50.621 133.5 55.2451C133.294 55.9103 133.088 56.5755 132.875 57.2609C132.04 59.9627 131.206 62.6651 130.375 65.3684C127.802 73.7302 125.067 81.989 122.085 90.2151C120.78 93.8936 119.676 97.5762 118.625 101.335C116.758 107.877 114.681 114.328 112.5 120.772C110.441 126.867 108.454 132.961 106.688 139.147C104.393 147.137 101.867 155.05 99.3125 162.96C99.0993 163.62 98.8861 164.28 98.6665 164.961C95.4057 175.045 92.0599 185.1 88.6875 195.147C85.226 205.465 81.9348 215.793 79 226.272C78.334 228.606 77.6674 230.939 77 233.272C86.9456 233.234 96.8909 233.175 106.836 233.089C111.456 233.049 116.075 233.017 120.694 233.001C125.162 232.986 129.629 232.952 134.096 232.904C135.791 232.889 137.486 232.881 139.18 232.881C158.432 232.861 173.858 227.388 189.193 215.612C192.407 213.188 194.919 211.465 199 211.272C201.753 212.058 203.846 213.397 206 215.272C207.438 217.96 207.438 217.96 207 221.272C204.649 224.581 201.837 227.381 199 230.272C197.845 231.598 196.698 232.931 195.562 234.272C179.207 252.828 157.913 267.534 132.574 269.544C129.057 269.644 125.552 269.656 122.034 269.629C120.058 269.632 120.058 269.632 118.043 269.635C114.479 269.64 110.916 269.627 107.353 269.61C103.61 269.594 99.8668 269.596 96.1237 269.595C89.856 269.591 83.5883 269.576 77.3206 269.554C69.2678 269.525 61.215 269.515 53.1622 269.51C46.2287 269.506 39.2952 269.494 32.3617 269.48C30.1343 269.476 27.9068 269.473 25.6793 269.47C21.5475 269.464 17.4157 269.449 13.2839 269.434C11.4288 269.432 11.4288 269.432 9.53618 269.43C8.41913 269.425 7.30207 269.419 6.15117 269.413C5.17474 269.41 4.1983 269.407 3.19228 269.404C0.999997 269.273 1 269.272 0 268.272C0.089843 266.415 0.246119 264.56 0.4375 262.71C0.539336 261.698 0.641172 260.686 0.746094 259.644C0.871777 258.47 0.871777 258.47 1 257.272C1.66 257.272 2.32 257.272 3 257.272C3.11279 256.724 3.22558 256.175 3.34178 255.609C4.5031 250.151 5.97248 244.889 7.72266 239.593C7.98381 238.791 8.24497 237.99 8.51404 237.164C9.35938 234.574 10.2108 231.986 11.0625 229.397C11.6558 227.584 12.2488 225.77 12.8416 223.957C16.3891 213.115 19.9776 202.288 23.6067 191.473C25.7885 184.957 27.9293 178.428 30.043 171.89C30.308 171.07 30.5731 170.25 30.8462 169.406C32.1517 165.366 33.454 161.325 34.7522 157.283C37.3457 149.231 40.0325 141.236 42.9497 133.293C44.2573 129.532 45.2831 125.736 46.2266 121.87C47 119.272 47 119.272 48.4031 116.1C50.0468 112.305 51.214 108.412 52.3242 104.433C54.6847 96.2031 57.3158 88.0847 60.0504 79.9728C60.8343 77.6453 61.6126 75.3159 62.3896 72.9861C64.7393 65.95 67.1111 58.9236 69.5586 51.9209C69.9333 50.8363 70.308 49.7516 70.6941 48.6341C71.3726 46.6747 72.062 44.7191 72.7649 42.7683C74.6596 37.2687 75.8605 32.1101 75 26.2725C73.2594 23.2425 71.8649 21.7813 68.875 20.0225C64.635 18.9164 60.3617 18.5943 56 18.2725C56.2072 12.5758 57.2079 7.9003 60.516 3.17782C66.2958 -1.25552 75.1855 0.189184 82.1445 0.358427Z" fill="white"/>
<path d="M261.398 70.0253C262.403 70.0267 263.408 70.0281 264.444 70.0296C265.581 70.0265 266.719 70.0234 267.891 70.0203C269.125 70.0274 270.358 70.0346 271.629 70.042C273.519 70.0427 273.519 70.0427 275.447 70.0434C278.114 70.0465 280.782 70.0533 283.449 70.0667C286.875 70.0837 290.3 70.0875 293.726 70.0868C296.985 70.0871 300.245 70.0959 303.504 70.1045C305.357 70.1062 305.357 70.1062 307.247 70.1079C308.949 70.1175 308.949 70.1175 310.686 70.1272C311.69 70.1311 312.694 70.1349 313.729 70.1388C316 70.2725 316 70.2725 317 71.2725C316.984 73.2413 316.984 73.2413 316.75 75.7725C316.683 76.5872 316.616 77.4019 316.547 78.2413C315.948 81.5612 314.943 84.5601 313.843 87.7422C312.29 92.4053 311.049 97.1586 309.75 101.898C307.496 110.034 305.171 118.14 302.688 126.21C299.655 136.064 296.719 145.944 293.812 155.835C293.602 156.55 293.392 157.265 293.175 158.001C292.56 160.093 291.946 162.185 291.332 164.276C291.134 164.95 290.937 165.623 290.733 166.317C289.776 169.584 288.833 172.853 287.916 176.131C285.068 186.286 285.068 186.286 283.461 190.362C281.359 195.704 280.065 201.287 278.625 206.835C276.448 215.082 274.133 223.168 271.316 231.218C269.079 237.855 267.368 244.674 265.586 251.445C265.17 252.982 265.17 252.982 264.746 254.55C264.506 255.46 264.265 256.37 264.017 257.307C262.713 261.109 260.798 264.677 259 268.272C239.53 268.272 220.06 268.272 200 268.272C200 260.404 200 260.404 201.355 256.409C201.646 255.532 201.936 254.654 202.235 253.751C202.549 252.83 202.864 251.909 203.188 250.96C203.839 248.988 204.487 247.016 205.133 245.042C205.453 244.066 205.773 243.089 206.103 242.084C207.364 238.133 208.481 234.15 209.562 230.148C212.649 218.795 216.085 207.552 219.516 196.3C219.776 195.445 220.037 194.59 220.306 193.709C220.859 191.894 221.413 190.079 221.968 188.264C223.98 181.664 225.964 175.056 227.938 168.444C228.467 166.671 228.997 164.898 229.527 163.125C230.317 160.479 231.107 157.833 231.894 155.185C234.755 145.564 237.692 135.991 240.954 126.497C242.274 122.428 243.291 118.323 244.227 114.151C244.851 111.828 245.57 109.704 246.434 107.468C248.058 103.241 249.27 98.9566 250.438 94.585C250.869 93.0078 251.301 91.431 251.734 89.8545C251.946 89.0832 252.158 88.3119 252.377 87.5171C253.281 84.2584 254.221 81.0136 255.188 77.7725C255.49 76.7516 255.793 75.7306 256.105 74.6788C257.267 71.5547 258.001 70.3755 261.398 70.0253Z" fill="white"/>
</svg>
