<svg width="878" height="577" viewBox="0 0 878 577" fill="none" xmlns="http://www.w3.org/2000/svg">
<path d="M0 0C43.56 0 87.12 0 132 0C132 7.92 132 15.84 132 24C115.83 24 99.66 24 83 24C85.31 29.94 87.62 35.88 90 42C91.3428 45.5809 92.6774 49.1616 93.9883 52.7539C94.3286 53.6817 94.6688 54.6095 95.0194 55.5654C96.1187 58.5639 97.2156 61.5632 98.3125 64.5625C99.1029 66.7195 99.8935 68.8764 100.684 71.0332C102.319 75.4921 103.953 79.9512 105.586 84.4106C108.957 93.613 112.335 102.813 115.715 112.012C116.45 114.013 117.185 116.014 117.92 118.015C124.548 136.062 131.194 154.103 137.842 172.142C144.267 189.575 150.681 207.012 157.084 224.453C161.551 236.621 166.025 248.787 170.508 260.949C170.742 261.584 170.976 262.219 171.217 262.873C173.726 269.68 176.235 276.487 178.746 283.293C183.868 297.182 188.956 311.082 194 325C200.19 309.661 206.183 294.249 212.125 278.812C213.089 276.312 214.053 273.811 215.017 271.311C217.016 266.126 219.014 260.941 221.011 255.756C225.732 243.503 230.46 231.251 235.188 219C235.873 217.222 235.873 217.222 236.573 215.409C243.252 198.102 249.95 180.803 256.661 163.509C263.062 147.013 269.442 130.508 275.812 114C276.265 112.828 276.717 111.656 277.183 110.448C282.011 97.9394 286.836 85.4295 291.652 72.9165C293.443 68.2625 295.236 63.609 297.028 58.9557C298.255 55.7711 299.481 52.5862 300.706 49.4006C302.057 45.8849 303.411 42.3701 304.766 38.8555C305.167 37.8104 305.568 36.7653 305.981 35.6885C306.351 34.7294 306.721 33.7702 307.103 32.782C307.583 31.5343 307.583 31.5343 308.072 30.2614C308.947 28.1298 309.97 26.0608 311 24C294.83 24 278.66 24 262 24C262 16.08 262 8.16 262 0C303.25 0 344.5 0 387 0C387 7.92 387 15.84 387 24C371.82 24 356.64 24 341 24C339.515 28.95 339.515 28.95 338 34C337.101 36.4531 336.168 38.8941 335.199 41.3203C334.796 42.3346 334.796 42.3346 334.385 43.3694C333.799 44.8438 333.211 46.3175 332.622 47.7905C331.309 51.0704 330.006 54.354 328.702 57.6374C327.981 59.4534 327.259 61.2692 326.537 63.0848C322.134 74.1638 317.782 85.2634 313.428 96.3618C306.802 113.248 300.167 130.13 293.5 147C287.46 162.284 281.446 177.578 275.438 192.875C274.974 194.056 274.51 195.237 274.032 196.454C270.688 204.969 267.344 213.484 264 222C260.188 231.708 256.376 241.417 252.562 251.125C252.099 252.306 251.635 253.486 251.157 254.703C245.291 269.639 239.412 284.57 233.513 299.494C224.627 321.977 215.819 344.491 207 367C198.42 367 189.84 367 181 367C179.86 364.054 178.721 361.109 177.547 358.074C169.015 336.031 160.451 314.002 151.812 292C151.395 290.936 150.977 289.873 150.547 288.777C149.921 287.184 149.921 287.184 149.283 285.558C148.451 283.437 147.618 281.316 146.785 279.195C146.379 278.161 145.973 277.128 145.555 276.062C141.607 266.005 137.676 255.941 133.75 245.875C133.427 245.046 133.104 244.218 132.771 243.364C131.159 239.231 129.547 235.097 127.936 230.964C124.96 223.333 121.982 215.704 119.005 208.074C117.334 203.793 115.663 199.512 113.992 195.23C113.497 193.961 113.497 193.961 112.991 192.665C111.011 187.59 109.031 182.516 107.051 177.441C99.7113 158.623 92.3624 139.809 85 121C77.5832 102.051 70.1695 83.1007 62.7828 64.1399C60.9351 59.3973 59.0842 54.6559 57.2308 49.9154C56.0854 46.9837 54.9427 44.0508 53.801 41.1176C53.2722 39.761 52.7423 38.4048 52.2112 37.0491C51.4919 35.2123 50.7771 33.3738 50.0625 31.5352C49.6616 30.5079 49.2607 29.4806 48.8477 28.4221C48 26 48 26 48 24C32.16 24 16.32 24 0 24C0 16.08 0 8.16 0 0Z" fill="white"/>
<path d="M343 100C376.66 100 410.32 100 445 100C445 107.92 445 115.84 445 124C432.79 124 420.58 124 408 124C410.537 129.198 413.074 134.395 415.688 139.75C421.692 152.085 427.585 164.459 433.325 176.919C436.97 184.819 440.707 192.67 444.5 200.5C448.789 209.36 452.999 218.251 457.125 227.188C462.463 238.746 467.902 250.254 473.375 261.75C481.651 279.135 489.852 296.554 498 314C502.563 305.41 506.3 296.473 510.097 287.528C512.091 282.831 514.097 278.138 516.102 273.445C516.716 272.007 516.716 272.007 517.343 270.539C521.39 261.068 525.5 251.625 529.625 242.188C531.029 238.974 532.433 235.761 533.836 232.547C534.18 231.758 534.525 230.969 534.88 230.157C538.691 221.426 542.472 212.682 546.25 203.938C546.582 203.169 546.915 202.4 547.257 201.607C548.568 198.572 549.88 195.536 551.191 192.501C555.388 182.785 559.599 173.074 563.809 163.363C565.784 158.806 567.759 154.247 569.732 149.688C570.945 146.885 572.159 144.081 573.372 141.278C573.953 139.936 574.534 138.594 575.114 137.252C575.914 135.402 576.715 133.553 577.516 131.703C577.972 130.648 578.429 129.592 578.899 128.505C579.566 126.988 580.259 125.482 581 124C568.46 124 555.92 124 543 124C543 116.08 543 108.16 543 100C576.33 100 609.66 100 644 100C644 107.92 644 115.84 644 124C632.45 124 620.9 124 609 124C608.67 125.65 608.34 127.3 608 129C606.913 131.692 605.787 134.334 604.598 136.98C604.249 137.769 603.9 138.557 603.54 139.369C602.783 141.078 602.024 142.787 601.262 144.495C599.196 149.131 597.147 153.775 595.098 158.418C594.673 159.379 594.249 160.34 593.811 161.33C589.463 171.187 585.226 181.09 581 191C574.716 205.725 568.332 220.403 561.875 235.052C555.786 248.871 549.808 262.735 543.88 276.624C538.234 289.85 532.491 303.03 526.688 316.188C521.314 328.375 516.008 340.584 510.875 352.875C510.609 353.512 510.343 354.149 510.069 354.805C507.6 360.72 505.147 366.64 502.707 372.566C498.556 382.607 494.099 392.402 489 402C488.681 402.602 488.361 403.203 488.032 403.823C474.125 429.71 454.349 454.78 426.125 465.5C409.243 470.134 389.565 468.065 374.062 460.188C361.159 452.522 352.986 441.52 349 427C347.275 416.742 347.04 406.248 352.688 397.188C357.865 390.163 363.809 385.214 372.57 383.496C380.694 382.421 386.49 383.682 393.312 388.188C398.711 393.837 400.649 399.48 401.102 407.258C400.71 417.837 394.301 425.023 387 432C386.34 432.66 385.68 433.32 385 434C386.56 434.963 388.123 435.92 389.688 436.875C390.558 437.409 391.428 437.942 392.324 438.492C401.423 443.619 409.771 443.669 419.762 441.074C446.373 432.247 458.757 407.303 470.538 383.96C474.264 376.417 477.734 368.753 481 361C481.312 360.297 481.624 359.595 481.945 358.871C483.839 354.348 484.161 351.717 483 347C481.872 344.373 480.705 341.852 479.422 339.305C478.878 338.2 478.878 338.2 478.323 337.073C477.544 335.493 476.761 333.914 475.976 332.337C473.893 328.155 471.837 323.96 469.777 319.766C469.365 318.927 468.952 318.088 468.527 317.223C465.016 310.071 461.637 302.866 458.312 295.625C453.821 285.859 449.204 276.164 444.5 266.5C439.755 256.752 435.098 246.973 430.562 237.125C425.831 226.854 420.956 216.664 416 206.5C410.501 195.224 405.128 183.903 399.887 172.503C396.968 166.172 393.988 159.878 390.93 153.613C390.586 152.909 390.243 152.205 389.889 151.479C388.217 148.053 386.537 144.63 384.847 141.212C384.238 139.969 383.629 138.725 383.02 137.48C382.484 136.397 381.949 135.313 381.398 134.196C380 131 380 131 378 124C366.45 124 354.9 124 343 124C343 116.08 343 108.16 343 100Z" fill="white"/>
<path d="M655 100C728.59 100 802.18 100 878 100C878 120 878 120 874.062 125.562C872.388 127.057 870.701 128.536 869 130C867.547 131.699 866.131 133.43 864.75 135.188C861.092 139.709 857.323 144.118 853.5 148.5C849.766 152.782 846.075 157.083 842.5 161.5C838.381 166.588 834.099 171.52 829.797 176.453C826.635 180.088 823.531 183.755 820.5 187.5C816.381 192.588 812.099 197.52 807.797 202.453C804.635 206.088 801.531 209.755 798.5 213.5C794.381 218.588 790.099 223.52 785.797 228.453C782.635 232.088 779.531 235.755 776.5 239.5C772.381 244.588 768.099 249.52 763.797 254.453C760.635 258.088 757.531 261.755 754.5 265.5C750.381 270.588 746.099 275.52 741.797 280.453C738.635 284.088 735.531 287.755 732.5 291.5C728.925 295.917 725.234 300.218 721.5 304.5C717.007 309.653 712.617 314.869 708.316 320.184C705.086 324.111 701.764 327.957 698.424 331.791C694.424 336.413 690.771 341.152 687 346C740.13 346 793.26 346 848 346C848 325.21 848 304.42 848 283C855.92 283 863.84 283 872 283C872 310.72 872 338.44 872 367C800.39 367 728.78 367 655 367C655 341 655 341 659.938 333.562C662.996 330.66 662.996 330.66 664.542 329.321C666.807 327.268 668.618 324.901 670.5 322.5C674.248 317.895 678.07 313.36 681.914 308.836C684.812 305.419 687.672 301.975 690.5 298.5C694.248 293.895 698.07 289.36 701.914 284.836C704.812 281.419 707.672 277.975 710.5 274.5C714.248 269.895 718.07 265.36 721.914 260.836C724.812 257.419 727.672 253.975 730.5 250.5C734.248 245.895 738.07 241.36 741.914 236.836C745.563 232.535 749.136 228.177 752.695 223.801C755.22 220.732 757.795 217.71 760.375 214.688C764.158 210.251 767.805 205.734 771.375 201.125C775.831 195.38 780.511 189.869 785.3 184.399C789.216 179.922 793.013 175.365 796.758 170.742C799.303 167.63 801.896 164.563 804.5 161.5C807.873 157.531 811.212 153.54 814.5 149.5C818.741 144.29 823.072 139.162 827.422 134.043C829.964 131.042 832.482 128.021 835 125C784.18 124.67 733.36 124.34 681 124C681 144.13 681 164.26 681 185C672.42 185 663.84 185 655 185C655 156.95 655 128.9 655 100Z" fill="white"/>
<path d="M653 508C657.907 507.109 662.117 506.867 667 508C670.803 511.508 673.205 515.515 675.789 519.965C677.751 523.262 679.982 526.363 682.188 529.5C683.096 530.821 684.002 532.144 684.906 533.469C685.631 534.53 685.631 534.53 686.371 535.613C686.909 536.401 687.446 537.189 688 538C688.643 538.942 689.286 539.885 689.949 540.855C694.303 547.235 698.652 553.617 703 560C703 544.49 703 528.98 703 513C700.03 512.67 697.06 512.34 694 512C694 510.68 694 509.36 694 508C701.92 508 709.84 508 718 508C718 509.32 718 510.64 718 512C715.36 512.33 712.72 512.66 710 513C709.67 533.46 709.34 553.92 709 575C703.643 573.929 703.031 573.296 700.107 569.036C699.638 568.323 699.17 567.61 698.688 566.875C697.633 565.325 696.578 563.776 695.523 562.227C694.96 561.388 694.396 560.549 693.815 559.685C690.536 554.835 687.165 550.049 683.812 545.25C678.195 537.176 672.599 529.087 667 521C666.67 537.17 666.34 553.34 666 570C668.31 570 670.62 570 673 570C675.438 570.5 675.438 570.5 677 571C677 572.32 677 573.64 677 575C669.08 575 661.16 575 653 575C653 573.68 653 572.36 653 571C657.455 570.505 657.455 570.505 662 570C661.67 551.19 661.34 532.38 661 513C658.36 512.67 655.72 512.34 653 512C653 510.68 653 509.36 653 508Z" fill="white"/>
<path d="M132 508C136.838 507.925 141.676 507.871 146.514 507.835C148.157 507.82 149.8 507.8 151.443 507.774C153.816 507.737 156.189 507.72 158.562 507.707C159.287 507.692 160.011 507.676 160.757 507.66C166.738 507.658 172.303 508.794 177.059 512.684C177.741 513.552 177.741 513.552 178.438 514.438C178.911 515.014 179.384 515.59 179.871 516.184C182.367 520.2 182.314 524.368 182 529C180.24 534.9 177.201 538.773 172 542C171.01 542 170.02 542 169 542C169.364 542.441 169.727 542.882 170.102 543.336C173.006 547.223 175.063 550.873 176.418 555.535C176.652 556.34 176.887 557.144 177.128 557.973C177.58 559.599 177.998 561.235 178.379 562.878C179.033 565.232 179.586 567.002 181 569C183.956 570.31 186.789 570.764 190 571C190 572.32 190 573.64 190 575C187.896 575.081 185.792 575.139 183.688 575.188C182.516 575.222 181.344 575.257 180.137 575.293C177 575 177 575 175.418 573.822C173.612 571.502 172.986 569.385 172.168 566.562C171.844 565.503 171.52 564.443 171.186 563.352C170.521 561.12 169.867 558.886 169.225 556.648C167.439 550.535 167.439 550.535 163.426 545.812C158.71 544.694 153.826 544.439 149 544C149 552.58 149 561.16 149 570C152.3 570.33 155.6 570.66 159 571C159 572.32 159 573.64 159 575C150.09 575 141.18 575 132 575C132 573.68 132 572.36 132 571C136.95 570.505 136.95 570.505 142 570C142 550.86 142 531.72 142 512C138.7 512 135.4 512 132 512C132 510.68 132 509.36 132 508ZM149 512C149 521.24 149 530.48 149 540C160.617 540.739 160.617 540.739 170 537C174.244 532.421 175.378 529.432 175.27 523.32C174.836 519.589 173.57 517.699 171 515C163.406 510.781 158.495 512 149 512Z" fill="white"/>
<path d="M623 511C631.465 516.861 634.513 523.969 636.496 533.84C638.189 544.454 636.784 555.402 630.75 564.5C626.15 570.465 621.323 573.94 614 576C603.707 577.159 596.16 575.783 587.973 569.426C582.157 564.151 578.511 556.84 577.823 548.976C577.452 536.056 577.581 525.944 586.188 515.562C596.114 505.427 610.67 503.23 623 511ZM591 519C584.539 528.872 583.328 540.914 585.688 552.324C587.97 559.904 591.222 564.851 597.25 569.875C602.689 572.1 608.505 572.776 614.188 571.062C620.7 568.129 624.659 562.467 627.438 556.062C630.652 546.058 630.51 534.046 626.328 524.371C622.615 517.743 618.384 513.11 611 511C602.816 510.123 596.722 513.278 591 519Z" fill="white"/>
<path d="M245.168 508.914C253.845 514.057 259.038 521.641 261.645 531.418C263.371 543.961 262.189 555.49 254.742 565.957C249.925 571.606 244.036 575.562 236.582 576.371C227.224 576.536 220.204 575.621 212.977 569.203C204.351 560.104 202.573 549.965 202.789 537.793C203.322 528.21 206.862 519.789 213.957 513.176C222.634 506.324 234.839 504.174 245.168 508.914ZM219.312 516.312C212.583 524.133 209.265 533.223 209.719 543.656C210.771 552.422 212.937 560.36 219 567C224.233 570.999 229.457 572.623 236 572C242.693 569.829 247.239 566.68 250.816 560.59C256.216 548.775 256.292 537.134 252 525C248.866 518.618 245.465 514.928 239 512C231.543 509.514 225.2 511.246 219.312 516.312Z" fill="white"/>
<path d="M346 508C361.84 508 377.68 508 394 508C394.495 516.415 394.495 516.415 395 525C393.35 525 391.7 525 390 525C389.01 518.565 389.01 518.565 388 512C379.42 512 370.84 512 362 512C362 520.91 362 529.82 362 539C367.28 538.67 372.56 538.34 378 538C378.33 535.03 378.66 532.06 379 529C380.65 529 382.3 529 384 529C384 536.59 384 544.18 384 552C382.35 552 380.7 552 379 552C378.505 548.04 378.505 548.04 378 544C372.72 543.67 367.44 543.34 362 543C362 551.91 362 560.82 362 570C371.24 570 380.48 570 390 570C390.33 566.04 390.66 562.08 391 558C392.65 558 394.3 558 396 558C396 563.61 396 569.22 396 575C379.5 575 363 575 346 575C346 573.68 346 572.36 346 571C350.95 570.505 350.95 570.505 356 570C355.67 551.19 355.34 532.38 355 513C352.03 512.67 349.06 512.34 346 512C346 510.68 346 509.36 346 508Z" fill="white"/>
<path d="M278 508C294.17 508 310.34 508 327 508C327.495 516.415 327.495 516.415 328 525C326.35 525 324.7 525 323 525C322.661 523.585 322.329 522.168 322 520.75C321.814 519.961 321.629 519.172 321.438 518.359C321 516 321 516 321 512C312.42 512 303.84 512 295 512C295 520.91 295 529.82 295 539C300.28 538.67 305.56 538.34 311 538C311.33 535.03 311.66 532.06 312 529C313.65 529 315.3 529 317 529C317 536.92 317 544.84 317 553C315.35 553 313.7 553 312 553C311.505 548.545 311.505 548.545 311 544C305.72 543.67 300.44 543.34 295 543C295 551.91 295 560.82 295 570C297.31 570 299.62 570 302 570C304.438 570.5 304.438 570.5 306 571C306 572.32 306 573.64 306 575C296.76 575 287.52 575 278 575C278 573.68 278 572.36 278 571C282.95 570.505 282.95 570.505 288 570C288 550.86 288 531.72 288 512C284.7 512 281.4 512 278 512C278 510.68 278 509.36 278 508Z" fill="white"/>
<path d="M758 508C759.98 508 761.96 508 764 508C764.192 508.577 764.383 509.154 764.581 509.748C766.591 515.801 768.603 521.852 770.616 527.904C771.365 530.156 772.114 532.409 772.862 534.662C773.943 537.917 775.026 541.172 776.109 544.426C776.439 545.419 776.768 546.412 777.107 547.435C779.042 553.241 781.082 558.989 783.262 564.708C784 567 784 567 784 570C787.3 570.33 790.6 570.66 794 571C794 572.32 794 573.64 794 575C785.09 575 776.18 575 767 575C767 573.68 767 572.36 767 571C771.95 570.505 771.95 570.505 777 570C776.639 568.952 776.278 567.904 775.906 566.824C775.437 565.445 774.969 564.066 774.5 562.688C774.262 561.997 774.023 561.307 773.777 560.596C772.768 557.611 772 555.173 772 552C764.41 552.33 756.82 552.66 749 553C747.02 558.61 745.04 564.22 743 570C745.64 570.33 748.28 570.66 751 571C751 572.32 751 573.64 751 575C744.07 575 737.14 575 730 575C730 573.68 730 572.36 730 571C732.64 570.67 735.28 570.34 738 570C738.17 569.348 738.34 568.696 738.515 568.024C740.425 560.845 742.642 553.809 745.012 546.77C745.571 545.095 745.571 545.095 746.142 543.386C747.321 539.861 748.504 536.337 749.688 532.812C750.493 530.406 751.298 527.999 752.104 525.592C754.066 519.727 756.032 513.863 758 508ZM759 519C757.716 522.969 756.435 526.938 755.155 530.908C754.719 532.259 754.282 533.611 753.845 534.962C753.218 536.9 752.593 538.839 751.969 540.777C751.592 541.945 751.215 543.113 750.826 544.316C749.951 546.691 749.951 546.691 750 548C756.6 548 763.2 548 770 548C767.472 538.168 764.265 528.606 761 519C760.34 519 759.68 519 759 519Z" fill="white"/>
<path d="M68 508C72.5165 507.9 77.0325 507.828 81.5498 507.78C83.0821 507.76 84.6144 507.733 86.1465 507.698C103.682 507.309 103.682 507.309 111 512C116.064 517.24 117.383 522.454 117.277 529.625C116.646 535.027 114.107 539.301 110.062 542.875C101.894 548.543 93.6302 548.107 84 548C84.33 555.26 84.66 562.52 85 570C88.3 570.33 91.6 570.66 95 571C95 572.32 95 573.64 95 575C86.09 575 77.18 575 68 575C68 573.68 68 572.36 68 571C72.95 570.505 72.95 570.505 78 570C77.67 551.19 77.34 532.38 77 513C74.03 512.67 71.06 512.34 68 512C68 510.68 68 509.36 68 508ZM85 512C84.2142 516.149 83.8815 520.053 83.9023 524.273C83.9056 525.427 83.9088 526.581 83.9121 527.77C83.9205 528.959 83.9289 530.149 83.9375 531.375C83.942 532.588 83.9465 533.801 83.9512 535.051C83.9629 538.034 83.9793 541.017 84 544C95.3801 544.323 95.3801 544.323 105.438 539.625C109.224 535.746 110.299 533.038 110.375 527.625C110.275 522.63 109.484 519.767 106 516C100.981 512.361 96.8532 511.871 90.75 511.938C89.6723 511.947 88.5947 511.956 87.4844 511.965C86.2546 511.982 86.2546 511.982 85 512Z" fill="white"/>
<path d="M453 511C453.495 511.495 453.495 511.495 454 512C453.91 514.191 453.753 516.378 453.562 518.562C453.461 519.76 453.359 520.958 453.254 522.191C453.17 523.118 453.086 524.045 453 525C451.35 524.67 449.7 524.34 448 524C447.914 523.301 447.827 522.603 447.738 521.883C447.132 516.385 447.132 516.385 443.812 512.375C437.329 511.511 432.855 511.847 427 515C424.089 517.536 424.003 518.976 423.5 522.875C423.318 526.614 424.978 528.838 427.417 531.59C430.185 534.056 433.382 535.205 436.812 536.5C443.906 539.394 449.929 542.335 454.938 548.312C457.436 554.632 457.674 560.679 455 567C451.506 571.418 447.427 574.492 442 576C432.799 576.956 424.255 576.661 416 572C415 571 415 571 414.902 567.84C414.92 565.908 414.92 565.908 414.938 563.938C414.947 562.647 414.956 561.357 414.965 560.027C414.976 559.028 414.988 558.029 415 557C416.65 557 418.3 557 420 557C420.077 558.139 420.077 558.139 420.156 559.301C420.595 564.946 420.595 564.946 423.633 569.398C430.54 572.134 437.534 571.774 444.305 568.906C446.743 567.603 447.815 566.509 449 564C450.005 560.123 450.217 557.724 449.062 553.875C445.018 548.238 439.326 546.08 433 543.625C426.51 541.013 421.351 537.625 417.5 531.688C416.475 526.179 416.343 521.049 418.062 515.688C426.098 504.541 441.967 503.861 453 511Z" fill="white"/>
<path d="M514 511C514 515.62 514 520.24 514 525C512.35 525 510.7 525 509 525C508.34 521.37 507.68 517.74 507 514C501.823 511.98 497.262 510.905 491.848 512.723C488.574 514.185 486.466 515.31 484.437 518.312C483.851 521.914 484.053 524.465 485 528C489.177 533.442 494.883 535.599 500.973 538.336C507.247 541.275 512.304 543.967 516 550C517.614 554.841 517.977 560.186 516.281 565.07C513.672 569.932 510.408 573.028 505.32 575.082C496.329 577.568 486.317 576.85 477.723 573.363C476 572 476 572 475.219 569.688C474.993 566.92 475.107 564.442 475.437 561.688C475.539 560.804 475.641 559.921 475.746 559.012C475.83 558.348 475.914 557.684 476 557C477.65 557 479.3 557 481 557C481.33 560.96 481.66 564.92 482 569C490.539 571.44 497.893 572.368 506 568C509.242 565.244 509.894 562.935 510.375 558.688C509.916 554.177 508.308 551.922 505 549C501.969 547.201 498.802 545.817 495.562 544.438C482.593 538.831 482.593 538.831 478.723 533.113C476.717 527.643 476.356 522.641 478 517C480.432 512.656 483.987 509.134 488.758 507.438C497.958 505.642 505.838 506.497 514 511Z" fill="white"/>
<path d="M811 508C819.58 508 828.16 508 837 508C837 509.32 837 510.64 837 512C832.545 512.495 832.545 512.495 828 513C827.67 531.81 827.34 550.62 827 570C839.375 569.505 839.375 569.505 852 569C852.66 565.04 853.32 561.08 854 557C855.65 557 857.3 557 859 557C859.027 559.438 859.047 561.875 859.062 564.312C859.071 565.003 859.079 565.693 859.088 566.404C859.103 569.548 859.002 571.994 858 575C842.49 575 826.98 575 811 575C811 573.68 811 572.36 811 571C814 570 814 570 821 570C820.67 551.19 820.34 532.38 820 513C817.03 512.67 814.06 512.34 811 512C811 510.68 811 509.36 811 508Z" fill="white"/>
<path d="M535 508C543.58 508 552.16 508 561 508C561 509.32 561 510.64 561 512C556.545 512.495 556.545 512.495 552 513C551.67 531.81 551.34 550.62 551 570C554.3 570.33 557.6 570.66 561 571C561 572.32 561 573.64 561 575C552.42 575 543.84 575 535 575C535 573.68 535 572.36 535 571C539.95 570.505 539.95 570.505 545 570C544.67 551.19 544.34 532.38 544 513C541.03 512.67 538.06 512.34 535 512C535 510.68 535 509.36 535 508Z" fill="white"/>
</svg>
